G04 Layer_Color=32896*
%FSLAX25Y25*%
%MOIN*%
G70*
G01*
G75*
%ADD45C,0.00787*%
D45*
X359155Y185530D02*
X359942Y186317D01*
X361516D01*
X362303Y185530D01*
Y182382D01*
X361516Y181595D01*
X359942D01*
X359155Y182382D01*
X357580Y181595D02*
X356006D01*
X356793D01*
Y186317D01*
X357580Y185530D01*
X383564Y184349D02*
X384351Y185136D01*
X385926D01*
X386713Y184349D01*
Y181201D01*
X385926Y180413D01*
X384351D01*
X383564Y181201D01*
X378841Y180413D02*
X381990D01*
X378841Y183562D01*
Y184349D01*
X379628Y185136D01*
X381203D01*
X381990Y184349D01*
X280316Y247833D02*
X281103Y248621D01*
X282677D01*
X283465Y247833D01*
Y244685D01*
X282677Y243898D01*
X281103D01*
X280316Y244685D01*
X278742Y243898D02*
X277167D01*
X277955D01*
Y248621D01*
X278742Y247833D01*
X274806Y248621D02*
X271657D01*
Y247833D01*
X274806Y244685D01*
Y243898D01*
X368012Y267815D02*
Y272538D01*
X365650D01*
X364863Y271751D01*
Y270176D01*
X365650Y269389D01*
X368012D01*
X366438D02*
X364863Y267815D01*
X363289D02*
X361715D01*
X362502D01*
Y272538D01*
X363289Y271751D01*
X356205Y272538D02*
X359353D01*
Y270176D01*
X357779Y270964D01*
X356992D01*
X356205Y270176D01*
Y268602D01*
X356992Y267815D01*
X358566D01*
X359353Y268602D01*
X331988Y267815D02*
Y272538D01*
X329627D01*
X328840Y271751D01*
Y270176D01*
X329627Y269389D01*
X331988D01*
X330414D02*
X328840Y267815D01*
X327265D02*
X325691D01*
X326478D01*
Y272538D01*
X327265Y271751D01*
X320181Y272538D02*
X321755Y271751D01*
X323330Y270176D01*
Y268602D01*
X322542Y267815D01*
X320968D01*
X320181Y268602D01*
Y269389D01*
X320968Y270176D01*
X323330D01*
M02*
