G04 Layer_Physical_Order=2*
G04 Layer_Color=16711680*
%FSLAX25Y25*%
%MOIN*%
G70*
G01*
G75*
%ADD12R,0.03150X0.03937*%
%ADD13R,0.03937X0.03150*%
%ADD26R,0.06000X0.03000*%
%ADD27C,0.01000*%
%ADD28C,0.01969*%
%ADD33R,0.47244X0.47244*%
G04:AMPARAMS|DCode=34|XSize=120mil|YSize=120mil|CornerRadius=30mil|HoleSize=0mil|Usage=FLASHONLY|Rotation=270.000|XOffset=0mil|YOffset=0mil|HoleType=Round|Shape=RoundedRectangle|*
%AMROUNDEDRECTD34*
21,1,0.12000,0.06000,0,0,270.0*
21,1,0.06000,0.12000,0,0,270.0*
1,1,0.06000,-0.03000,-0.03000*
1,1,0.06000,-0.03000,0.03000*
1,1,0.06000,0.03000,0.03000*
1,1,0.06000,0.03000,-0.03000*
%
%ADD34ROUNDEDRECTD34*%
%ADD35C,0.12000*%
%ADD36C,0.06000*%
G04:AMPARAMS|DCode=37|XSize=60mil|YSize=60mil|CornerRadius=15mil|HoleSize=0mil|Usage=FLASHONLY|Rotation=270.000|XOffset=0mil|YOffset=0mil|HoleType=Round|Shape=RoundedRectangle|*
%AMROUNDEDRECTD37*
21,1,0.06000,0.03000,0,0,270.0*
21,1,0.03000,0.06000,0,0,270.0*
1,1,0.03000,-0.01500,-0.01500*
1,1,0.03000,-0.01500,0.01500*
1,1,0.03000,0.01500,0.01500*
1,1,0.03000,0.01500,-0.01500*
%
%ADD37ROUNDEDRECTD37*%
%ADD38C,0.07685*%
%ADD39C,0.14173*%
%ADD40C,0.03937*%
%ADD41C,0.19685*%
%ADD42C,0.05000*%
G36*
X465446Y352073D02*
X465257Y137698D01*
X435043Y107484D01*
X208067D01*
X179072Y136479D01*
X179553Y355143D01*
X209059Y384649D01*
X432870D01*
X465446Y352073D01*
D02*
G37*
%LPC*%
G36*
X392618Y217703D02*
X391899Y217608D01*
X391228Y217331D01*
X390653Y216889D01*
X390211Y216313D01*
X389933Y215643D01*
X389838Y214924D01*
X389865Y214725D01*
X380123Y204983D01*
X379650Y205217D01*
X379555Y205936D01*
X379277Y206606D01*
X378836Y207182D01*
X378260Y207624D01*
X377590Y207902D01*
X376870Y207996D01*
X376151Y207902D01*
X375480Y207624D01*
X374905Y207182D01*
X374782Y207023D01*
X361635D01*
X361513Y207182D01*
X360937Y207624D01*
X360267Y207902D01*
X359547Y207996D01*
X358828Y207902D01*
X358157Y207624D01*
X357582Y207182D01*
X357140Y206606D01*
X356862Y205936D01*
X356768Y205217D01*
X356862Y204497D01*
X357140Y203827D01*
X357582Y203251D01*
X358157Y202809D01*
X358828Y202532D01*
X359547Y202437D01*
X360267Y202532D01*
X360937Y202809D01*
X361513Y203251D01*
X361635Y203410D01*
X374430D01*
X374545Y203251D01*
X374290Y202751D01*
X368661D01*
X367970Y202614D01*
X367384Y202222D01*
X350138Y184976D01*
X309547D01*
X308856Y184838D01*
X308270Y184447D01*
X305022Y181198D01*
X304823Y181225D01*
X304103Y181130D01*
X303433Y180852D01*
X302857Y180410D01*
X302416Y179835D01*
X302138Y179164D01*
X302043Y178445D01*
X302138Y177725D01*
X302416Y177055D01*
X302857Y176479D01*
X303433Y176038D01*
X304103Y175760D01*
X304823Y175665D01*
X305542Y175760D01*
X306213Y176038D01*
X306788Y176479D01*
X307230Y177055D01*
X307508Y177725D01*
X307603Y178445D01*
X307576Y178644D01*
X310296Y181363D01*
X346018D01*
X346118Y180863D01*
X345854Y180754D01*
X345279Y180312D01*
X344837Y179736D01*
X344559Y179066D01*
X344464Y178347D01*
X344559Y177627D01*
X344837Y176957D01*
X345279Y176381D01*
X345854Y175939D01*
X346525Y175662D01*
X347244Y175567D01*
X347964Y175662D01*
X348634Y175939D01*
X349210Y176381D01*
X349651Y176957D01*
X349929Y177627D01*
X350024Y178347D01*
X349929Y179066D01*
X349651Y179736D01*
X349210Y180312D01*
X348634Y180754D01*
X348370Y180863D01*
X348470Y181363D01*
X350886D01*
X351577Y181500D01*
X352163Y181892D01*
X369410Y199138D01*
X378639D01*
X379331Y199276D01*
X379917Y199668D01*
X392419Y212170D01*
X392618Y212144D01*
X393337Y212239D01*
X394008Y212516D01*
X394584Y212958D01*
X395025Y213534D01*
X395303Y214204D01*
X395398Y214924D01*
X395303Y215643D01*
X395025Y216313D01*
X394584Y216889D01*
X394008Y217331D01*
X393337Y217608D01*
X392618Y217703D01*
D02*
G37*
G36*
X347736Y207521D02*
X346747Y207391D01*
X345826Y207009D01*
X345035Y206402D01*
X344428Y205611D01*
X344046Y204690D01*
X343916Y203701D01*
X344046Y202712D01*
X344428Y201791D01*
X345035Y201000D01*
X345826Y200393D01*
X346747Y200011D01*
X347736Y199881D01*
X348725Y200011D01*
X349646Y200393D01*
X350437Y201000D01*
X351045Y201791D01*
X351426Y202712D01*
X351556Y203701D01*
X351426Y204690D01*
X351045Y205611D01*
X350437Y206402D01*
X349646Y207009D01*
X348725Y207391D01*
X347736Y207521D01*
D02*
G37*
G36*
X337736Y202521D02*
X336748Y202391D01*
X335826Y202009D01*
X335035Y201402D01*
X334428Y200611D01*
X334046Y199689D01*
X333916Y198701D01*
X334046Y197712D01*
X334428Y196791D01*
X335035Y196000D01*
X335826Y195393D01*
X336748Y195011D01*
X337736Y194881D01*
X338725Y195011D01*
X339646Y195393D01*
X340437Y196000D01*
X341044Y196791D01*
X341426Y197712D01*
X341556Y198701D01*
X341426Y199689D01*
X341044Y200611D01*
X340437Y201402D01*
X339646Y202009D01*
X338725Y202391D01*
X337736Y202521D01*
D02*
G37*
G36*
X347736Y227521D02*
X346747Y227391D01*
X345826Y227009D01*
X345035Y226402D01*
X344428Y225611D01*
X344046Y224690D01*
X343916Y223701D01*
X344046Y222712D01*
X344428Y221791D01*
X345035Y221000D01*
X345113Y220940D01*
X344952Y220466D01*
X344191D01*
X340528Y224129D01*
X340103Y224413D01*
X339600Y224513D01*
X329501D01*
X328999Y224413D01*
X328573Y224129D01*
X328338Y223894D01*
X328218Y223878D01*
X327767Y223927D01*
X327402Y224402D01*
X326826Y224844D01*
X326156Y225122D01*
X325436Y225217D01*
X324717Y225122D01*
X324047Y224844D01*
X323471Y224402D01*
X323029Y223827D01*
X322752Y223156D01*
X322657Y222437D01*
X322752Y221718D01*
X323029Y221047D01*
X323471Y220472D01*
X324047Y220030D01*
X324717Y219752D01*
X325436Y219657D01*
X326156Y219752D01*
X326826Y220030D01*
X327402Y220472D01*
X327844Y221047D01*
X327876Y221124D01*
X328737D01*
X329239Y221224D01*
X329665Y221509D01*
X330045Y221888D01*
X334891D01*
X334998Y221572D01*
X335024Y221388D01*
X334428Y220611D01*
X334046Y219689D01*
X333916Y218701D01*
X334046Y217712D01*
X334428Y216791D01*
X335035Y216000D01*
X335669Y215513D01*
X335499Y215013D01*
X329271D01*
X328769Y214914D01*
X328343Y214629D01*
X327464Y213750D01*
X313231D01*
X313199Y213827D01*
X312757Y214403D01*
X312181Y214844D01*
X311511Y215122D01*
X310791Y215217D01*
X310072Y215122D01*
X309401Y214844D01*
X308826Y214403D01*
X308384Y213827D01*
X308106Y213156D01*
X308012Y212437D01*
X308106Y211718D01*
X308384Y211047D01*
X308826Y210472D01*
X309401Y210030D01*
X310072Y209752D01*
X310791Y209657D01*
X311511Y209752D01*
X312181Y210030D01*
X312757Y210472D01*
X313199Y211047D01*
X313231Y211124D01*
X328007D01*
X328510Y211224D01*
X328935Y211509D01*
X329815Y212388D01*
X344180D01*
X344428Y211791D01*
X345035Y211000D01*
X345826Y210392D01*
X346747Y210011D01*
X347736Y209881D01*
X348725Y210011D01*
X349646Y210392D01*
X350437Y211000D01*
X351045Y211791D01*
X351426Y212712D01*
X351556Y213701D01*
X351426Y214689D01*
X351045Y215611D01*
X350437Y216402D01*
X349646Y217009D01*
X348845Y217341D01*
X348945Y217841D01*
X355179D01*
X355211Y217764D01*
X355653Y217188D01*
X356228Y216746D01*
X356899Y216469D01*
X357618Y216374D01*
X358337Y216469D01*
X359008Y216746D01*
X359584Y217188D01*
X360025Y217764D01*
X360303Y218434D01*
X360398Y219153D01*
X360303Y219873D01*
X360025Y220543D01*
X359584Y221119D01*
X359008Y221561D01*
X358337Y221838D01*
X357618Y221933D01*
X356899Y221838D01*
X356228Y221561D01*
X355653Y221119D01*
X355211Y220543D01*
X355179Y220466D01*
X350520D01*
X350359Y220940D01*
X350437Y221000D01*
X351045Y221791D01*
X351426Y222712D01*
X351556Y223701D01*
X351426Y224690D01*
X351045Y225611D01*
X350437Y226402D01*
X349646Y227009D01*
X348725Y227391D01*
X347736Y227521D01*
D02*
G37*
G36*
X262500Y345556D02*
X261291Y345397D01*
X260165Y344930D01*
X259198Y344188D01*
X258456Y343221D01*
X257989Y342094D01*
X257830Y340886D01*
X257989Y339677D01*
X258456Y338551D01*
X259198Y337584D01*
X260165Y336842D01*
X261291Y336375D01*
X262500Y336216D01*
X263709Y336375D01*
X264835Y336842D01*
X265802Y337584D01*
X266544Y338551D01*
X267011Y339677D01*
X267170Y340886D01*
X267011Y342094D01*
X266544Y343221D01*
X265802Y344188D01*
X264835Y344930D01*
X263709Y345397D01*
X262500Y345556D01*
D02*
G37*
G36*
X316437Y302484D02*
X315718Y302390D01*
X315047Y302112D01*
X314472Y301670D01*
X314349Y301511D01*
X302731D01*
X302040Y301374D01*
X301454Y300982D01*
X290357Y289885D01*
X289965Y289299D01*
X289827Y288608D01*
Y272795D01*
X283860Y266828D01*
X283469Y266242D01*
X283331Y265551D01*
Y238937D01*
X276811Y232417D01*
X275513D01*
X275391Y232576D01*
X274815Y233017D01*
X274145Y233295D01*
X273425Y233390D01*
X272706Y233295D01*
X272035Y233017D01*
X271460Y232576D01*
X271018Y232000D01*
X270740Y231330D01*
X270645Y230610D01*
X270740Y229891D01*
X271018Y229220D01*
X271460Y228645D01*
X272035Y228203D01*
X272706Y227925D01*
X273425Y227831D01*
X274145Y227925D01*
X274815Y228203D01*
X275391Y228645D01*
X275513Y228804D01*
X332897D01*
X333589Y228941D01*
X334175Y229333D01*
X336965Y232123D01*
X339713D01*
X340404Y232260D01*
X340990Y232652D01*
X343843Y235505D01*
X344267Y235221D01*
X344046Y234689D01*
X343916Y233701D01*
X344046Y232712D01*
X344428Y231791D01*
X345035Y231000D01*
X345826Y230393D01*
X346747Y230011D01*
X347736Y229881D01*
X348725Y230011D01*
X349646Y230393D01*
X350437Y231000D01*
X351045Y231791D01*
X351426Y232712D01*
X351556Y233701D01*
X351426Y234689D01*
X351045Y235611D01*
X350437Y236402D01*
X349646Y237009D01*
X349049Y237257D01*
Y240145D01*
X349646Y240392D01*
X350437Y241000D01*
X351045Y241791D01*
X351426Y242712D01*
X351556Y243701D01*
X351426Y244689D01*
X351045Y245611D01*
X350437Y246402D01*
X349646Y247009D01*
X348725Y247391D01*
X347736Y247521D01*
X346747Y247391D01*
X345826Y247009D01*
X345035Y246402D01*
X344945Y246285D01*
X344472Y246446D01*
Y250956D01*
X344945Y251117D01*
X345035Y251000D01*
X345826Y250393D01*
X346747Y250011D01*
X347736Y249881D01*
X348725Y250011D01*
X349646Y250393D01*
X350437Y251000D01*
X351045Y251791D01*
X351426Y252712D01*
X351556Y253701D01*
X351426Y254690D01*
X351045Y255611D01*
X350437Y256402D01*
X349936Y256786D01*
Y264783D01*
X351917D01*
Y269358D01*
X345838D01*
X345646Y269820D01*
X347610Y271783D01*
X351917D01*
Y276358D01*
X344342D01*
Y273625D01*
X342598Y271881D01*
X340894Y273585D01*
Y276752D01*
X333319D01*
Y272177D01*
X337193D01*
X339156Y270214D01*
X338965Y269752D01*
X333319D01*
Y265177D01*
X335300D01*
Y261605D01*
X335035Y261402D01*
X334428Y260611D01*
X334046Y259689D01*
X333916Y258701D01*
X334046Y257712D01*
X334428Y256791D01*
X335035Y256000D01*
X335826Y255393D01*
X336748Y255011D01*
X337736Y254881D01*
X338725Y255011D01*
X339646Y255393D01*
X340359Y255939D01*
X340859Y255806D01*
Y237630D01*
X338965Y235736D01*
X336216D01*
X335525Y235598D01*
X334939Y235206D01*
X332149Y232417D01*
X282573D01*
X282382Y232878D01*
X286415Y236912D01*
X289169Y239665D01*
X289482D01*
X291493Y237654D01*
X291919Y237370D01*
X292421Y237270D01*
X293132D01*
X293164Y237193D01*
X293605Y236617D01*
X294181Y236175D01*
X294851Y235898D01*
X295571Y235803D01*
X296290Y235898D01*
X296961Y236175D01*
X297536Y236617D01*
X297978Y237193D01*
X298256Y237863D01*
X298351Y238583D01*
X298256Y239302D01*
X297978Y239972D01*
X297536Y240548D01*
X296961Y240990D01*
X296290Y241268D01*
X295571Y241362D01*
X294851Y241268D01*
X294181Y240990D01*
X293605Y240548D01*
X293338Y240200D01*
X292760Y240136D01*
X292700Y240160D01*
X291732Y241128D01*
Y244390D01*
X286944D01*
Y264803D01*
X292911Y270770D01*
X293303Y271356D01*
X293440Y272047D01*
Y287859D01*
X303479Y297898D01*
X314349D01*
X314472Y297739D01*
X315047Y297297D01*
X315718Y297020D01*
X316437Y296925D01*
X317156Y297020D01*
X317827Y297297D01*
X318403Y297739D01*
X318844Y298315D01*
X319122Y298985D01*
X319217Y299705D01*
X319122Y300424D01*
X318844Y301095D01*
X318403Y301670D01*
X317827Y302112D01*
X317156Y302390D01*
X316437Y302484D01*
D02*
G37*
G36*
X457579Y297342D02*
X408760D01*
Y248524D01*
X457579D01*
Y297342D01*
D02*
G37*
G36*
X204575Y196978D02*
X198575D01*
X197586Y196847D01*
X196665Y196466D01*
X195874Y195859D01*
X195266Y195068D01*
X194885Y194146D01*
X194755Y193157D01*
Y187157D01*
X194885Y186169D01*
X195266Y185247D01*
X195874Y184456D01*
X196665Y183849D01*
X197586Y183468D01*
X198575Y183337D01*
X204575D01*
X205563Y183468D01*
X206485Y183849D01*
X207276Y184456D01*
X207883Y185247D01*
X208265Y186169D01*
X208395Y187157D01*
Y193157D01*
X208265Y194146D01*
X207883Y195068D01*
X207276Y195859D01*
X206485Y196466D01*
X205563Y196847D01*
X204575Y196978D01*
D02*
G37*
G36*
X377559Y138859D02*
X376570Y138729D01*
X375649Y138348D01*
X374858Y137741D01*
X374251Y136949D01*
X373869Y136028D01*
X373739Y135039D01*
X373869Y134051D01*
X374251Y133129D01*
X374858Y132338D01*
X375649Y131731D01*
X376570Y131350D01*
X377559Y131219D01*
X378548Y131350D01*
X379469Y131731D01*
X380260Y132338D01*
X380867Y133129D01*
X381249Y134051D01*
X381379Y135039D01*
X381249Y136028D01*
X380867Y136949D01*
X380260Y137741D01*
X379469Y138348D01*
X378548Y138729D01*
X377559Y138859D01*
D02*
G37*
G36*
X327559D02*
X326570Y138729D01*
X325649Y138348D01*
X324858Y137741D01*
X324251Y136949D01*
X323869Y136028D01*
X323739Y135039D01*
X323869Y134051D01*
X324251Y133129D01*
X324858Y132338D01*
X325649Y131731D01*
X326570Y131350D01*
X327559Y131219D01*
X328548Y131350D01*
X329469Y131731D01*
X330260Y132338D01*
X330867Y133129D01*
X331249Y134051D01*
X331379Y135039D01*
X331249Y136028D01*
X330867Y136949D01*
X330260Y137741D01*
X329469Y138348D01*
X328548Y138729D01*
X327559Y138859D01*
D02*
G37*
G36*
X374410Y198055D02*
X373690Y197960D01*
X373020Y197683D01*
X372444Y197241D01*
X372002Y196665D01*
X371725Y195995D01*
X371630Y195276D01*
X371725Y194556D01*
X372002Y193886D01*
X372444Y193310D01*
X373020Y192868D01*
X373097Y192836D01*
Y190157D01*
X373197Y189655D01*
X373481Y189229D01*
X373875Y188836D01*
X374301Y188551D01*
X374803Y188451D01*
X384889D01*
X388048Y185292D01*
X388474Y185008D01*
X388976Y184908D01*
X392541D01*
X392573Y184831D01*
X393015Y184255D01*
X393590Y183813D01*
X394261Y183536D01*
X394980Y183441D01*
X395700Y183536D01*
X396370Y183813D01*
X396946Y184255D01*
X397388Y184831D01*
X397665Y185501D01*
X397760Y186221D01*
X397665Y186940D01*
X397388Y187610D01*
X396946Y188186D01*
X396370Y188628D01*
X395700Y188905D01*
X394980Y189000D01*
X394261Y188905D01*
X393590Y188628D01*
X393015Y188186D01*
X392573Y187610D01*
X392541Y187533D01*
X389520D01*
X386361Y190692D01*
X385935Y190977D01*
X385433Y191076D01*
X375722D01*
Y192836D01*
X375799Y192868D01*
X376375Y193310D01*
X376817Y193886D01*
X377094Y194556D01*
X377189Y195276D01*
X377094Y195995D01*
X376817Y196665D01*
X376375Y197241D01*
X375799Y197683D01*
X375129Y197960D01*
X374410Y198055D01*
D02*
G37*
G36*
X349236Y197533D02*
X346236D01*
X345344Y197355D01*
X344587Y196850D01*
X344081Y196093D01*
X343904Y195201D01*
Y192201D01*
X344081Y191308D01*
X344587Y190552D01*
X345344Y190046D01*
X346236Y189869D01*
X349236D01*
X350129Y190046D01*
X350885Y190552D01*
X351391Y191308D01*
X351568Y192201D01*
Y195201D01*
X351391Y196093D01*
X350885Y196850D01*
X350129Y197355D01*
X349236Y197533D01*
D02*
G37*
G36*
X457087Y237795D02*
X408268D01*
Y188976D01*
X457087D01*
Y237795D01*
D02*
G37*
G36*
X373917Y185698D02*
X373059Y185585D01*
X372259Y185253D01*
X371573Y184727D01*
X371164Y184193D01*
X371042Y184154D01*
X370690Y184154D01*
X370568Y184193D01*
X370159Y184726D01*
X369473Y185253D01*
X368673Y185584D01*
X367815Y185697D01*
X366956Y185584D01*
X366157Y185253D01*
X365470Y184726D01*
X364943Y184040D01*
X364612Y183240D01*
X364499Y182382D01*
X364505Y182335D01*
X362209Y180039D01*
X359646D01*
Y174528D01*
X362209D01*
X366698Y170039D01*
Y152481D01*
X366538Y152359D01*
X366097Y151784D01*
X365819Y151113D01*
X365724Y150394D01*
X365819Y149674D01*
X366097Y149004D01*
X366538Y148428D01*
X367114Y147986D01*
X367785Y147709D01*
X367904Y147693D01*
X368065Y147220D01*
X359274Y138429D01*
X358548Y138729D01*
X357559Y138859D01*
X356570Y138729D01*
X355649Y138348D01*
X354858Y137741D01*
X354251Y136949D01*
X353869Y136028D01*
X353739Y135039D01*
X353869Y134051D01*
X354251Y133129D01*
X354858Y132338D01*
X355649Y131731D01*
X356570Y131350D01*
X357559Y131219D01*
X358548Y131350D01*
X359469Y131731D01*
X360260Y132338D01*
X360867Y133129D01*
X361249Y134051D01*
X361379Y135039D01*
X361334Y135380D01*
X376080Y150126D01*
X376472Y150712D01*
X376609Y151403D01*
Y173327D01*
X377165D01*
Y178839D01*
X376609D01*
Y180490D01*
X376789Y180724D01*
X377120Y181524D01*
X377233Y182382D01*
X377120Y183240D01*
X376789Y184040D01*
X376262Y184727D01*
X375575Y185253D01*
X374776Y185585D01*
X373917Y185698D01*
D02*
G37*
G36*
X289469Y355556D02*
X288260Y355397D01*
X287134Y354930D01*
X286166Y354188D01*
X285424Y353221D01*
X284958Y352095D01*
X284799Y350886D01*
X284958Y349677D01*
X285424Y348551D01*
X286166Y347584D01*
X287134Y346842D01*
X288260Y346375D01*
X289469Y346216D01*
X290677Y346375D01*
X291803Y346842D01*
X292771Y347584D01*
X293513Y348551D01*
X293979Y349677D01*
X294138Y350886D01*
X293979Y352095D01*
X293513Y353221D01*
X292771Y354188D01*
X291803Y354930D01*
X290677Y355397D01*
X289469Y355556D01*
D02*
G37*
G36*
X278681D02*
X277472Y355397D01*
X276346Y354930D01*
X275379Y354188D01*
X274637Y353221D01*
X274170Y352095D01*
X274011Y350886D01*
X274170Y349677D01*
X274637Y348551D01*
X275379Y347584D01*
X276346Y346842D01*
X277472Y346375D01*
X278681Y346216D01*
X279890Y346375D01*
X281016Y346842D01*
X281983Y347584D01*
X282725Y348551D01*
X283192Y349677D01*
X283351Y350886D01*
X283192Y352095D01*
X282725Y353221D01*
X281983Y354188D01*
X281016Y354930D01*
X279890Y355397D01*
X278681Y355556D01*
D02*
G37*
G36*
X267894D02*
X266685Y355397D01*
X265559Y354930D01*
X264592Y354188D01*
X263849Y353221D01*
X263383Y352095D01*
X263224Y350886D01*
X263383Y349677D01*
X263849Y348551D01*
X264592Y347584D01*
X265559Y346842D01*
X266685Y346375D01*
X267894Y346216D01*
X269102Y346375D01*
X270229Y346842D01*
X271196Y347584D01*
X271938Y348551D01*
X272405Y349677D01*
X272564Y350886D01*
X272405Y352095D01*
X271938Y353221D01*
X271196Y354188D01*
X270229Y354930D01*
X269102Y355397D01*
X267894Y355556D01*
D02*
G37*
G36*
X300256D02*
X299047Y355397D01*
X297921Y354930D01*
X296954Y354188D01*
X296212Y353221D01*
X295745Y352095D01*
X295586Y350886D01*
X295745Y349677D01*
X296212Y348551D01*
X296954Y347584D01*
X297921Y346842D01*
X299047Y346375D01*
X300256Y346216D01*
X301465Y346375D01*
X302591Y346842D01*
X303558Y347584D01*
X304300Y348551D01*
X304767Y349677D01*
X304926Y350886D01*
X304767Y352095D01*
X304300Y353221D01*
X303558Y354188D01*
X302591Y354930D01*
X301465Y355397D01*
X300256Y355556D01*
D02*
G37*
G36*
X332618D02*
X331410Y355397D01*
X330283Y354930D01*
X329316Y354188D01*
X328574Y353221D01*
X328107Y352095D01*
X327948Y350886D01*
X328107Y349677D01*
X328574Y348551D01*
X329316Y347584D01*
X330283Y346842D01*
X331410Y346375D01*
X332618Y346216D01*
X333827Y346375D01*
X334953Y346842D01*
X335920Y347584D01*
X336662Y348551D01*
X337129Y349677D01*
X337288Y350886D01*
X337129Y352095D01*
X336662Y353221D01*
X335920Y354188D01*
X334953Y354930D01*
X333827Y355397D01*
X332618Y355556D01*
D02*
G37*
G36*
X321831D02*
X320622Y355397D01*
X319496Y354930D01*
X318529Y354188D01*
X317787Y353221D01*
X317320Y352095D01*
X317161Y350886D01*
X317320Y349677D01*
X317787Y348551D01*
X318529Y347584D01*
X319496Y346842D01*
X320622Y346375D01*
X321831Y346216D01*
X323039Y346375D01*
X324166Y346842D01*
X325133Y347584D01*
X325875Y348551D01*
X326342Y349677D01*
X326501Y350886D01*
X326342Y352095D01*
X325875Y353221D01*
X325133Y354188D01*
X324166Y354930D01*
X323039Y355397D01*
X321831Y355556D01*
D02*
G37*
G36*
X311043D02*
X309835Y355397D01*
X308708Y354930D01*
X307741Y354188D01*
X306999Y353221D01*
X306533Y352095D01*
X306374Y350886D01*
X306533Y349677D01*
X306999Y348551D01*
X307741Y347584D01*
X308708Y346842D01*
X309835Y346375D01*
X311043Y346216D01*
X312252Y346375D01*
X313378Y346842D01*
X314345Y347584D01*
X315088Y348551D01*
X315554Y349677D01*
X315713Y350886D01*
X315554Y352095D01*
X315088Y353221D01*
X314345Y354188D01*
X313378Y354930D01*
X312252Y355397D01*
X311043Y355556D01*
D02*
G37*
G36*
X365846Y353207D02*
X364303Y353055D01*
X362819Y352605D01*
X361451Y351874D01*
X360252Y350890D01*
X359268Y349691D01*
X358537Y348323D01*
X358086Y346839D01*
X357934Y345295D01*
X358086Y343752D01*
X358537Y342267D01*
X359268Y340899D01*
X360252Y339701D01*
X361451Y338717D01*
X362819Y337985D01*
X364303Y337535D01*
X365846Y337383D01*
X367390Y337535D01*
X368874Y337985D01*
X370242Y338717D01*
X371441Y339701D01*
X372425Y340899D01*
X373156Y342267D01*
X373607Y343752D01*
X373759Y345295D01*
X373607Y346839D01*
X373156Y348323D01*
X372425Y349691D01*
X371441Y350890D01*
X370242Y351874D01*
X368874Y352605D01*
X367390Y353055D01*
X365846Y353207D01*
D02*
G37*
G36*
X305650Y345556D02*
X304441Y345397D01*
X303315Y344930D01*
X302347Y344188D01*
X301605Y343221D01*
X301139Y342094D01*
X300980Y340886D01*
X301139Y339677D01*
X301605Y338551D01*
X302347Y337584D01*
X303315Y336842D01*
X304441Y336375D01*
X305650Y336216D01*
X306858Y336375D01*
X307985Y336842D01*
X308952Y337584D01*
X309694Y338551D01*
X310160Y339677D01*
X310319Y340886D01*
X310160Y342094D01*
X309694Y343221D01*
X308952Y344188D01*
X307985Y344930D01*
X306858Y345397D01*
X305650Y345556D01*
D02*
G37*
G36*
X284075D02*
X282866Y345397D01*
X281740Y344930D01*
X280773Y344188D01*
X280031Y343221D01*
X279564Y342094D01*
X279405Y340886D01*
X279564Y339677D01*
X280031Y338551D01*
X280773Y337584D01*
X281740Y336842D01*
X282866Y336375D01*
X284075Y336216D01*
X285283Y336375D01*
X286410Y336842D01*
X287377Y337584D01*
X288119Y338551D01*
X288586Y339677D01*
X288745Y340886D01*
X288586Y342094D01*
X288119Y343221D01*
X287377Y344188D01*
X286410Y344930D01*
X285283Y345397D01*
X284075Y345556D01*
D02*
G37*
G36*
X273287D02*
X272079Y345397D01*
X270953Y344930D01*
X269985Y344188D01*
X269243Y343221D01*
X268777Y342094D01*
X268618Y340886D01*
X268777Y339677D01*
X269243Y338551D01*
X269985Y337584D01*
X270953Y336842D01*
X272079Y336375D01*
X273287Y336216D01*
X274496Y336375D01*
X275622Y336842D01*
X276589Y337584D01*
X277332Y338551D01*
X277798Y339677D01*
X277957Y340886D01*
X277798Y342094D01*
X277332Y343221D01*
X276589Y344188D01*
X275622Y344930D01*
X274496Y345397D01*
X273287Y345556D01*
D02*
G37*
G36*
X316437D02*
X315228Y345397D01*
X314102Y344930D01*
X313135Y344188D01*
X312393Y343221D01*
X311926Y342094D01*
X311767Y340886D01*
X311926Y339677D01*
X312393Y338551D01*
X313135Y337584D01*
X314102Y336842D01*
X315228Y336375D01*
X316437Y336216D01*
X317646Y336375D01*
X318772Y336842D01*
X319739Y337584D01*
X320481Y338551D01*
X320948Y339677D01*
X321107Y340886D01*
X320948Y342094D01*
X320481Y343221D01*
X319739Y344188D01*
X318772Y344930D01*
X317646Y345397D01*
X316437Y345556D01*
D02*
G37*
G36*
X338012D02*
X336803Y345397D01*
X335677Y344930D01*
X334710Y344188D01*
X333968Y343221D01*
X333501Y342094D01*
X333342Y340886D01*
X333501Y339677D01*
X333968Y338551D01*
X334710Y337584D01*
X335677Y336842D01*
X336803Y336375D01*
X338012Y336216D01*
X339220Y336375D01*
X340347Y336842D01*
X341314Y337584D01*
X342056Y338551D01*
X342523Y339677D01*
X342682Y340886D01*
X342523Y342094D01*
X342056Y343221D01*
X341314Y344188D01*
X340347Y344930D01*
X339220Y345397D01*
X338012Y345556D01*
D02*
G37*
G36*
X234665Y353207D02*
X233122Y353055D01*
X231638Y352605D01*
X230270Y351874D01*
X229071Y350890D01*
X228087Y349691D01*
X227356Y348323D01*
X226905Y346839D01*
X226753Y345295D01*
X226905Y343752D01*
X227356Y342267D01*
X228087Y340899D01*
X229071Y339701D01*
X230270Y338717D01*
X231638Y337985D01*
X233122Y337535D01*
X234665Y337383D01*
X236209Y337535D01*
X237693Y337985D01*
X239061Y338717D01*
X240260Y339701D01*
X241244Y340899D01*
X241975Y342267D01*
X242425Y343752D01*
X242578Y345295D01*
X242425Y346839D01*
X241975Y348323D01*
X241244Y349691D01*
X240260Y350890D01*
X239061Y351874D01*
X237693Y352605D01*
X236209Y353055D01*
X234665Y353207D01*
D02*
G37*
G36*
X327224Y345556D02*
X326016Y345397D01*
X324889Y344930D01*
X323922Y344188D01*
X323180Y343221D01*
X322714Y342094D01*
X322555Y340886D01*
X322714Y339677D01*
X323180Y338551D01*
X323922Y337584D01*
X324889Y336842D01*
X326016Y336375D01*
X327224Y336216D01*
X328433Y336375D01*
X329559Y336842D01*
X330526Y337584D01*
X331269Y338551D01*
X331735Y339677D01*
X331894Y340886D01*
X331735Y342094D01*
X331269Y343221D01*
X330526Y344188D01*
X329559Y344930D01*
X328433Y345397D01*
X327224Y345556D01*
D02*
G37*
%LPD*%
G36*
X371164Y180570D02*
X371573Y180037D01*
X372259Y179510D01*
X372674Y179339D01*
X372575Y178839D01*
X372441D01*
Y173327D01*
X372997D01*
Y152152D01*
X371678Y150833D01*
X371205Y150994D01*
X371189Y151113D01*
X370911Y151784D01*
X370469Y152359D01*
X370310Y152481D01*
Y170787D01*
X370173Y171479D01*
X369781Y172065D01*
X364563Y177284D01*
X366604Y179325D01*
X366956Y179179D01*
X367815Y179066D01*
X368673Y179179D01*
X369473Y179510D01*
X370159Y180037D01*
X370568Y180570D01*
X370690Y180609D01*
X371042Y180609D01*
X371164Y180570D01*
D02*
G37*
D12*
X362008Y177284D02*
D03*
X356299D02*
D03*
X374803Y176083D02*
D03*
X380512D02*
D03*
D13*
X288976Y242028D02*
D03*
Y247736D02*
D03*
D26*
X348130Y267071D02*
D03*
Y274071D02*
D03*
X337106Y267465D02*
D03*
Y274465D02*
D03*
D27*
X342564Y269701D02*
X347131Y274268D01*
X357559Y135039D02*
X358439D01*
X343647Y219153D02*
X357618D01*
X339600Y223201D02*
X343647Y219153D01*
X374410Y190157D02*
Y195276D01*
X310791Y212437D02*
X328007D01*
X329271Y213701D01*
X347736D01*
X325436Y222437D02*
X328737D01*
X346850Y254587D02*
X347736Y253701D01*
X294291Y247736D02*
X297244Y244783D01*
X328737Y222437D02*
X329501Y223201D01*
X288976Y247736D02*
X294291D01*
X292421Y238583D02*
X295571D01*
X288976Y242028D02*
X292421Y238583D01*
X388976Y186221D02*
X394980D01*
X385433Y189764D02*
X388976Y186221D01*
X374803Y189764D02*
X385433D01*
X374410Y190157D02*
X374803Y189764D01*
X347736Y233701D02*
Y243701D01*
X337736Y267209D02*
X337894Y267366D01*
X329501Y223201D02*
X339600D01*
X337894Y274031D02*
Y274366D01*
X347131Y274268D02*
X347539D01*
X402286Y186024D02*
X402559D01*
D28*
X302731Y299705D02*
X316437D01*
X291634Y288608D02*
X302731Y299705D01*
X291634Y272047D02*
Y288608D01*
X285138Y265551D02*
X291634Y272047D01*
X285138Y238189D02*
Y265551D01*
X347736Y253701D02*
X348130Y254095D01*
Y267071D01*
X337106Y259331D02*
X337736Y258701D01*
X337106Y259331D02*
Y267465D01*
X342665Y269531D02*
Y269600D01*
Y236882D02*
Y269531D01*
X342564Y269701D02*
X342665Y269600D01*
Y269531D02*
X342802D01*
X342394D02*
X342665D01*
X342802D02*
X347539Y274268D01*
X337894Y274031D02*
X342394Y269531D01*
X339713Y233929D02*
X342665Y236882D01*
X277559Y230610D02*
X332897D01*
X273425D02*
X277559D01*
X336216Y233929D02*
X339713D01*
X332897Y230610D02*
X336216Y233929D01*
X358439Y135039D02*
X374803Y151403D01*
Y176083D01*
X368504Y150394D02*
Y170787D01*
X362008Y177284D02*
X368504Y170787D01*
X378639Y200945D02*
X392618Y214924D01*
X368661Y200945D02*
X378639D01*
X350886Y183169D02*
X368661Y200945D01*
X309547Y183169D02*
X350886D01*
X304823Y178445D02*
X309547Y183169D01*
X359547Y205217D02*
X376870D01*
X277559Y230610D02*
X285138Y238189D01*
X288976Y242028D01*
X362008Y177284D02*
X367106Y182382D01*
X367815D01*
X374803Y176083D02*
Y181496D01*
X373917Y182382D02*
X374803Y181496D01*
D33*
X433366Y154232D02*
D03*
X432677Y213386D02*
D03*
X433169Y272933D02*
D03*
D34*
X201575Y190157D02*
D03*
D35*
Y170473D02*
D03*
D36*
X337736Y258701D02*
D03*
X347736Y253701D02*
D03*
X337736Y248701D02*
D03*
X347736Y243701D02*
D03*
X337736Y238701D02*
D03*
X347736Y233701D02*
D03*
X337736Y218701D02*
D03*
X347736Y223701D02*
D03*
X337736Y228701D02*
D03*
X347736Y213701D02*
D03*
X337736Y208701D02*
D03*
Y198701D02*
D03*
X347736Y203701D02*
D03*
X327559Y135039D02*
D03*
X337559D02*
D03*
X357559D02*
D03*
X367559D02*
D03*
X377559D02*
D03*
D37*
X347736Y193701D02*
D03*
D38*
X338012Y340886D02*
D03*
X327224D02*
D03*
X316437D02*
D03*
X305650D02*
D03*
X294902D02*
D03*
X284075D02*
D03*
X273287D02*
D03*
X262500D02*
D03*
X332618Y350886D02*
D03*
X321831D02*
D03*
X311043D02*
D03*
X300256D02*
D03*
X289469D02*
D03*
X278681D02*
D03*
X267894D02*
D03*
D39*
X365846Y345295D02*
D03*
X234665D02*
D03*
D40*
X347244Y158346D02*
D03*
X337244Y168347D02*
D03*
X347244Y178347D02*
D03*
X261811Y211614D02*
D03*
X222539Y245374D02*
D03*
X318996Y164665D02*
D03*
X307185Y161909D02*
D03*
X280413Y132382D02*
D03*
Y146555D02*
D03*
X235138Y222539D02*
D03*
X216634Y243012D02*
D03*
X250886Y246161D02*
D03*
X219783Y264665D02*
D03*
X247736Y261909D02*
D03*
X243406Y195768D02*
D03*
X280413Y267027D02*
D03*
X231201Y196949D02*
D03*
X222933D02*
D03*
X257579Y148917D02*
D03*
Y154823D02*
D03*
Y160728D02*
D03*
X243799Y150886D02*
D03*
Y156791D02*
D03*
X320571Y179232D02*
D03*
X243799Y168602D02*
D03*
X280413Y139469D02*
D03*
X393799Y203248D02*
D03*
X392618Y214924D02*
D03*
X304823Y178445D02*
D03*
X376870Y205217D02*
D03*
X359547D02*
D03*
X291043Y182382D02*
D03*
X270374Y186319D02*
D03*
X253248Y183169D02*
D03*
X384744Y235531D02*
D03*
X378051Y227658D02*
D03*
X357618Y219153D02*
D03*
X374410Y195276D02*
D03*
X200689Y235335D02*
D03*
X257579Y288681D02*
D03*
X310791Y212437D02*
D03*
X325436Y222437D02*
D03*
X297244Y244783D02*
D03*
X273425Y230610D02*
D03*
X295571Y238583D02*
D03*
X394980Y186221D02*
D03*
X368504Y150394D02*
D03*
X275590Y222638D02*
D03*
X274902Y202756D02*
D03*
X304933Y190846D02*
D03*
X304232Y306594D02*
D03*
X316437Y299705D02*
D03*
X258563Y267028D02*
D03*
X402559Y186024D02*
D03*
X392224Y167027D02*
D03*
X325783Y217005D02*
D03*
X206997Y136790D02*
D03*
X197154Y156475D02*
D03*
X206997Y215530D02*
D03*
Y294270D02*
D03*
X197154Y313955D02*
D03*
X206997Y333640D02*
D03*
X197154Y353325D02*
D03*
X206997Y373010D02*
D03*
X216839Y117105D02*
D03*
X226682Y136790D02*
D03*
X216839Y156475D02*
D03*
Y313955D02*
D03*
X226682Y333640D02*
D03*
X216839Y353325D02*
D03*
X226682Y373010D02*
D03*
X236524Y117105D02*
D03*
Y156475D02*
D03*
X246367Y215530D02*
D03*
X236524Y235215D02*
D03*
Y274585D02*
D03*
X246367Y294270D02*
D03*
Y333640D02*
D03*
Y373010D02*
D03*
X256209Y195845D02*
D03*
X266052Y294270D02*
D03*
X256209Y313955D02*
D03*
Y353325D02*
D03*
X266052Y373010D02*
D03*
X275894Y117105D02*
D03*
Y195845D02*
D03*
Y313955D02*
D03*
X285737Y333640D02*
D03*
Y373010D02*
D03*
X295580Y117105D02*
D03*
Y195845D02*
D03*
X305422Y215530D02*
D03*
Y373010D02*
D03*
X315265Y117105D02*
D03*
Y156475D02*
D03*
X325107Y176160D02*
D03*
Y254900D02*
D03*
X315265Y274585D02*
D03*
X325107Y294270D02*
D03*
X315265Y313955D02*
D03*
X325107Y333640D02*
D03*
Y373010D02*
D03*
X334950Y117105D02*
D03*
X344792Y136790D02*
D03*
X334950Y156475D02*
D03*
X344792Y294270D02*
D03*
Y333640D02*
D03*
Y373010D02*
D03*
X354635Y117105D02*
D03*
Y156475D02*
D03*
X364477Y254900D02*
D03*
X354635Y274585D02*
D03*
X364477Y294270D02*
D03*
X354635Y313955D02*
D03*
X364477Y333640D02*
D03*
X354635Y353325D02*
D03*
X364477Y373010D02*
D03*
X374320Y117105D02*
D03*
X384162Y136790D02*
D03*
X374320Y235215D02*
D03*
X384162Y254900D02*
D03*
X374320Y274585D02*
D03*
X384162Y294270D02*
D03*
X374320Y313955D02*
D03*
X384162Y333640D02*
D03*
X374320Y353325D02*
D03*
X384162Y373010D02*
D03*
X394005Y117105D02*
D03*
X403847Y136790D02*
D03*
X394005Y156475D02*
D03*
Y235215D02*
D03*
X403847Y254900D02*
D03*
X394005Y274585D02*
D03*
X403847Y294270D02*
D03*
X394005Y313955D02*
D03*
X403847Y333640D02*
D03*
X394005Y353325D02*
D03*
X403847Y373010D02*
D03*
X413690Y117105D02*
D03*
Y313955D02*
D03*
X423532Y333640D02*
D03*
X413690Y353325D02*
D03*
X423532Y373010D02*
D03*
X433375Y117105D02*
D03*
Y313955D02*
D03*
X443217Y333640D02*
D03*
X433375Y353325D02*
D03*
X462902Y176160D02*
D03*
Y215530D02*
D03*
Y254900D02*
D03*
Y294270D02*
D03*
X453060Y313955D02*
D03*
X462902Y333640D02*
D03*
X453060Y353325D02*
D03*
D41*
X459252Y113386D02*
D03*
Y377854D02*
D03*
X184646Y377854D02*
D03*
Y113484D02*
D03*
D42*
X367815Y182382D02*
D03*
X373917Y182382D02*
D03*
M02*
