G04 Layer_Physical_Order=1*
G04 Layer_Color=255*
%FSLAX25Y25*%
%MOIN*%
G70*
G01*
G75*
%ADD10R,0.08465X0.03937*%
%ADD11R,0.08465X0.12795*%
%ADD12R,0.03150X0.03937*%
%ADD13R,0.03937X0.03150*%
%ADD14R,0.04921X0.07677*%
%ADD15R,0.08858X0.07677*%
%ADD16O,0.05709X0.02362*%
%ADD17R,0.02362X0.03937*%
%ADD18O,0.08661X0.02362*%
%ADD19O,0.05512X0.01772*%
%ADD20R,0.11811X0.29528*%
%ADD21R,0.03150X0.03150*%
%ADD22R,0.05512X0.02362*%
%ADD23R,0.02559X0.03543*%
%ADD24R,0.03543X0.02559*%
%ADD25R,0.03000X0.06000*%
%ADD26R,0.06000X0.03000*%
%ADD27C,0.01000*%
%ADD28C,0.01969*%
%ADD29C,0.05906*%
%ADD30C,0.03150*%
%ADD31C,0.03937*%
%ADD32C,0.02362*%
%ADD33R,0.47244X0.47244*%
G04:AMPARAMS|DCode=34|XSize=120mil|YSize=120mil|CornerRadius=30mil|HoleSize=0mil|Usage=FLASHONLY|Rotation=270.000|XOffset=0mil|YOffset=0mil|HoleType=Round|Shape=RoundedRectangle|*
%AMROUNDEDRECTD34*
21,1,0.12000,0.06000,0,0,270.0*
21,1,0.06000,0.12000,0,0,270.0*
1,1,0.06000,-0.03000,-0.03000*
1,1,0.06000,-0.03000,0.03000*
1,1,0.06000,0.03000,0.03000*
1,1,0.06000,0.03000,-0.03000*
%
%ADD34ROUNDEDRECTD34*%
%ADD35C,0.12000*%
%ADD36C,0.06000*%
G04:AMPARAMS|DCode=37|XSize=60mil|YSize=60mil|CornerRadius=15mil|HoleSize=0mil|Usage=FLASHONLY|Rotation=270.000|XOffset=0mil|YOffset=0mil|HoleType=Round|Shape=RoundedRectangle|*
%AMROUNDEDRECTD37*
21,1,0.06000,0.03000,0,0,270.0*
21,1,0.03000,0.06000,0,0,270.0*
1,1,0.03000,-0.01500,-0.01500*
1,1,0.03000,-0.01500,0.01500*
1,1,0.03000,0.01500,0.01500*
1,1,0.03000,0.01500,-0.01500*
%
%ADD37ROUNDEDRECTD37*%
%ADD38C,0.07685*%
%ADD39C,0.14173*%
%ADD40C,0.03937*%
%ADD41C,0.19685*%
%ADD42C,0.05000*%
G36*
X432874Y384646D02*
X465450Y352070D01*
X465258Y137699D01*
X435039Y107480D01*
X208071Y107480D01*
X179044Y136507D01*
X179524Y355114D01*
X209055Y384646D01*
X432874Y384646D01*
D02*
G37*
%LPC*%
G36*
X396260Y194685D02*
X392126D01*
Y193143D01*
X391535D01*
Y193898D01*
X386417D01*
Y193596D01*
X384758D01*
X384687Y193703D01*
X384036Y194138D01*
X383268Y194290D01*
X379921D01*
X379153Y194138D01*
X378502Y193703D01*
X378067Y193052D01*
X377914Y192283D01*
X378067Y191515D01*
X378502Y190864D01*
X379153Y190429D01*
X379921Y190276D01*
X383268D01*
X384036Y190429D01*
X384687Y190864D01*
X384758Y190971D01*
X386417D01*
Y189764D01*
X391535D01*
Y190518D01*
X392126D01*
Y189567D01*
X396260D01*
Y194685D01*
D02*
G37*
G36*
X457579Y297342D02*
X408760D01*
Y250291D01*
X400986Y242517D01*
X400595Y241931D01*
X400457Y241240D01*
Y206555D01*
X392854Y198952D01*
X391535D01*
Y199213D01*
X386417D01*
Y198596D01*
X384758D01*
X384687Y198703D01*
X384036Y199138D01*
X383268Y199291D01*
X379921D01*
X379153Y199138D01*
X378502Y198703D01*
X378067Y198052D01*
X377914Y197283D01*
X378067Y196515D01*
X378502Y195864D01*
X379153Y195429D01*
X379921Y195276D01*
X383268D01*
X384036Y195429D01*
X384687Y195864D01*
X384758Y195971D01*
X386417D01*
Y195079D01*
X391535D01*
Y195339D01*
X393602D01*
X394294Y195477D01*
X394880Y195868D01*
X403541Y204530D01*
X403933Y205116D01*
X404070Y205807D01*
Y240492D01*
X412102Y248524D01*
X457579D01*
Y297342D01*
D02*
G37*
G36*
X373917Y185698D02*
X373059Y185585D01*
X372259Y185253D01*
X371573Y184727D01*
X371164Y184193D01*
X371042Y184154D01*
X370690Y184154D01*
X370568Y184193D01*
X370159Y184726D01*
X369473Y185253D01*
X368673Y185584D01*
X367815Y185697D01*
X366956Y185584D01*
X366157Y185253D01*
X365470Y184726D01*
X364982Y184090D01*
X362651D01*
X362579Y184138D01*
X361811Y184291D01*
X358465D01*
X357697Y184138D01*
X357045Y183703D01*
X356610Y183052D01*
X356457Y182283D01*
X356610Y181515D01*
X357045Y180864D01*
X357362Y180653D01*
X357210Y180153D01*
X349332D01*
X349210Y180312D01*
X348634Y180754D01*
X347964Y181031D01*
X347244Y181126D01*
X346525Y181031D01*
X345854Y180754D01*
X345279Y180312D01*
X345156Y180153D01*
X339075D01*
X338384Y180015D01*
X337797Y179624D01*
X331732Y173558D01*
X326870D01*
Y173819D01*
X321752D01*
Y173263D01*
X314665D01*
Y173819D01*
X309154D01*
Y173263D01*
X304823D01*
Y174311D01*
X302966D01*
X302775Y174773D01*
X303862Y175860D01*
X304103Y175760D01*
X304823Y175665D01*
X305542Y175760D01*
X306213Y176038D01*
X306788Y176479D01*
X307230Y177055D01*
X307508Y177725D01*
X307603Y178445D01*
X307508Y179164D01*
X307230Y179835D01*
X306788Y180410D01*
X306213Y180852D01*
X305542Y181130D01*
X304823Y181225D01*
X304103Y181130D01*
X303433Y180852D01*
X302857Y180410D01*
X302416Y179835D01*
X302195Y179302D01*
X297204Y174311D01*
X295374D01*
Y173558D01*
X290945D01*
Y173917D01*
X285433D01*
Y173362D01*
X282972D01*
X282281Y173224D01*
X281695Y172832D01*
X279665Y170802D01*
X278150D01*
Y171752D01*
X274213D01*
Y166240D01*
X278150D01*
Y167190D01*
X280413D01*
X281105Y167327D01*
X281691Y167719D01*
X283721Y169749D01*
X285433D01*
Y169193D01*
X290945D01*
Y169946D01*
X295374D01*
Y169193D01*
X299508D01*
Y171506D01*
X300227Y172225D01*
X300689Y172034D01*
Y169193D01*
X304823D01*
Y169650D01*
X309154D01*
Y169095D01*
X314665D01*
Y169650D01*
X324016D01*
X324190Y169685D01*
X326870D01*
Y169946D01*
X332480D01*
X333172Y170083D01*
X333758Y170475D01*
X339823Y176540D01*
X345156D01*
X345279Y176381D01*
X345854Y175939D01*
X346525Y175662D01*
X347244Y175567D01*
X347964Y175662D01*
X348634Y175939D01*
X349210Y176381D01*
X349332Y176540D01*
X356605D01*
X356610Y176515D01*
X357045Y175864D01*
X357697Y175429D01*
X358465Y175276D01*
X361811D01*
X362579Y175429D01*
X363230Y175864D01*
X363665Y176515D01*
X363818Y177284D01*
X363665Y178051D01*
X363230Y178703D01*
X362579Y179138D01*
X361811Y179290D01*
X360685D01*
X360352Y179624D01*
X360124Y179776D01*
X360275Y180276D01*
X361811D01*
X362579Y180429D01*
X362651Y180477D01*
X365132D01*
X365470Y180037D01*
X366157Y179510D01*
X366956Y179179D01*
X367815Y179066D01*
X368673Y179179D01*
X369473Y179510D01*
X370159Y180037D01*
X370568Y180570D01*
X370690Y180609D01*
X371042Y180609D01*
X371164Y180570D01*
X371573Y180037D01*
X372259Y179510D01*
X373059Y179179D01*
X373917Y179066D01*
X374776Y179179D01*
X375575Y179510D01*
X376262Y180037D01*
X376675Y180576D01*
X378934D01*
X379153Y180429D01*
X379921Y180276D01*
X383268D01*
X384036Y180429D01*
X384687Y180864D01*
X385122Y181515D01*
X385275Y182283D01*
X385122Y183052D01*
X384687Y183703D01*
X384036Y184138D01*
X383268Y184291D01*
X379921D01*
X379407Y184188D01*
X376675D01*
X376262Y184727D01*
X375575Y185253D01*
X374776Y185585D01*
X373917Y185698D01*
D02*
G37*
G36*
X361811Y189290D02*
X358465D01*
X357697Y189138D01*
X357045Y188703D01*
X356610Y188051D01*
X356457Y187284D01*
X356610Y186515D01*
X357045Y185864D01*
X357697Y185429D01*
X358465Y185276D01*
X361811D01*
X362579Y185429D01*
X363230Y185864D01*
X363665Y186515D01*
X363818Y187284D01*
X363665Y188051D01*
X363230Y188703D01*
X362579Y189138D01*
X361811Y189290D01*
D02*
G37*
G36*
X387205Y216161D02*
X383858D01*
X383090Y216008D01*
X382439Y215573D01*
X382004Y214922D01*
X381851Y214154D01*
X382004Y213386D01*
X382086Y213263D01*
X381203Y212380D01*
X380812Y211794D01*
X380674Y211102D01*
Y210335D01*
X380118D01*
Y209385D01*
X379232D01*
X378541Y209248D01*
X377955Y208856D01*
X377069Y207970D01*
X376870Y207996D01*
X376151Y207902D01*
X375480Y207624D01*
X374905Y207182D01*
X374463Y206606D01*
X374185Y205936D01*
X374090Y205217D01*
X374185Y204497D01*
X374463Y203827D01*
X374905Y203251D01*
X375480Y202809D01*
X376151Y202532D01*
X376870Y202437D01*
X377590Y202532D01*
X378260Y202809D01*
X378836Y203251D01*
X379277Y203827D01*
X379555Y204497D01*
X379618Y204976D01*
X380118Y204943D01*
Y204823D01*
X384842D01*
Y210335D01*
X384842D01*
X384767Y210835D01*
X386079Y212146D01*
X387205D01*
X387973Y212299D01*
X388624Y212734D01*
X389059Y213386D01*
X389212Y214154D01*
X389059Y214922D01*
X388624Y215573D01*
X387973Y216008D01*
X387205Y216161D01*
D02*
G37*
G36*
X253543Y236713D02*
X243504D01*
Y232307D01*
X225492D01*
X225311Y232283D01*
X220472D01*
Y226772D01*
X225311D01*
X225492Y226748D01*
X243504D01*
Y222342D01*
X253543D01*
Y228016D01*
X256594D01*
Y225197D01*
X267028D01*
Y228510D01*
X268649D01*
X270278Y226882D01*
Y220981D01*
X270378Y220479D01*
X270662Y220053D01*
X272165Y218550D01*
Y211961D01*
X276740D01*
Y219535D01*
X275401D01*
X275381Y219566D01*
X274955Y219850D01*
X274483Y219944D01*
X272903Y221525D01*
Y227395D01*
X272929Y227532D01*
X273232Y227856D01*
X273425Y227831D01*
X274145Y227925D01*
X274815Y228203D01*
X275391Y228645D01*
X275833Y229220D01*
X276110Y229891D01*
X276205Y230610D01*
X276110Y231330D01*
X275833Y232000D01*
X275391Y232576D01*
X274815Y233017D01*
X274145Y233295D01*
X273425Y233390D01*
X272706Y233295D01*
X272035Y233017D01*
X271460Y232576D01*
X271338Y232417D01*
X267028D01*
Y234449D01*
X256594D01*
Y231629D01*
X253543D01*
Y236713D01*
D02*
G37*
G36*
X332618Y355556D02*
X331410Y355397D01*
X330283Y354930D01*
X329316Y354188D01*
X328574Y353221D01*
X328107Y352095D01*
X327948Y350886D01*
X328107Y349677D01*
X328574Y348551D01*
X329316Y347584D01*
X330283Y346842D01*
X331410Y346375D01*
X332618Y346216D01*
X333827Y346375D01*
X334953Y346842D01*
X335920Y347584D01*
X336662Y348551D01*
X337129Y349677D01*
X337288Y350886D01*
X337129Y352095D01*
X336662Y353221D01*
X335920Y354188D01*
X334953Y354930D01*
X333827Y355397D01*
X332618Y355556D01*
D02*
G37*
G36*
X357618Y221933D02*
X356899Y221838D01*
X356228Y221561D01*
X355653Y221119D01*
X355211Y220543D01*
X354933Y219873D01*
X354838Y219153D01*
X354933Y218434D01*
X355211Y217764D01*
X355653Y217188D01*
X356228Y216746D01*
X356899Y216469D01*
X357618Y216374D01*
X358337Y216469D01*
X359008Y216746D01*
X359584Y217188D01*
X360025Y217764D01*
X360057Y217841D01*
X360911D01*
X360982Y217734D01*
X361633Y217299D01*
X362402Y217146D01*
X365748D01*
X366516Y217299D01*
X367167Y217734D01*
X367602Y218386D01*
X367755Y219153D01*
X367602Y219922D01*
X367167Y220573D01*
X366516Y221008D01*
X365748Y221161D01*
X362402D01*
X361633Y221008D01*
X360982Y220573D01*
X360911Y220466D01*
X360057D01*
X360025Y220543D01*
X359584Y221119D01*
X359008Y221561D01*
X358337Y221838D01*
X357618Y221933D01*
D02*
G37*
G36*
X395374Y226378D02*
X389862D01*
Y225960D01*
X388045D01*
X387973Y226008D01*
X387205Y226161D01*
X383858D01*
X383090Y226008D01*
X382439Y225573D01*
X382004Y224922D01*
X381851Y224153D01*
X382004Y223386D01*
X382439Y222734D01*
X383090Y222299D01*
X383858Y222147D01*
X387205D01*
X387973Y222299D01*
X388045Y222347D01*
X389862D01*
Y221654D01*
X390812D01*
Y217011D01*
X390653Y216889D01*
X390211Y216313D01*
X389933Y215643D01*
X389838Y214924D01*
X389933Y214204D01*
X390211Y213534D01*
X390653Y212958D01*
X391228Y212516D01*
X391899Y212239D01*
X392618Y212144D01*
X393337Y212239D01*
X394008Y212516D01*
X394584Y212958D01*
X395025Y213534D01*
X395303Y214204D01*
X395398Y214924D01*
X395303Y215643D01*
X395025Y216313D01*
X394584Y216889D01*
X394425Y217011D01*
Y221654D01*
X395374D01*
Y226378D01*
D02*
G37*
G36*
X368504Y153173D02*
X367785Y153079D01*
X367114Y152801D01*
X366538Y152359D01*
X366097Y151784D01*
X365819Y151113D01*
X365724Y150394D01*
X365819Y149674D01*
X366097Y149004D01*
X366538Y148428D01*
X367114Y147986D01*
X367785Y147709D01*
X368504Y147614D01*
X368703Y147640D01*
X375753Y140590D01*
Y138391D01*
X375649Y138348D01*
X374858Y137741D01*
X374251Y136949D01*
X373869Y136028D01*
X373739Y135039D01*
X373869Y134051D01*
X374251Y133129D01*
X374858Y132338D01*
X375649Y131731D01*
X376570Y131350D01*
X377559Y131219D01*
X378548Y131350D01*
X379469Y131731D01*
X380260Y132338D01*
X380867Y133129D01*
X381249Y134051D01*
X381379Y135039D01*
X381249Y136028D01*
X380867Y136949D01*
X380260Y137741D01*
X379469Y138348D01*
X379365Y138391D01*
Y141339D01*
X379228Y142030D01*
X378836Y142616D01*
X371257Y150195D01*
X371284Y150394D01*
X371189Y151113D01*
X370911Y151784D01*
X370469Y152359D01*
X369894Y152801D01*
X369223Y153079D01*
X368504Y153173D01*
D02*
G37*
G36*
X361811Y174291D02*
X358465D01*
X357697Y174138D01*
X357045Y173703D01*
X356610Y173052D01*
X356457Y172283D01*
X356610Y171515D01*
X357045Y170864D01*
X357697Y170429D01*
X358465Y170276D01*
X358825D01*
Y169290D01*
X358465D01*
X357697Y169138D01*
X357045Y168703D01*
X356610Y168052D01*
X356457Y167283D01*
X356610Y166515D01*
X357045Y165864D01*
X357697Y165429D01*
X358465Y165276D01*
X358825D01*
Y161614D01*
X358661D01*
Y156496D01*
X362795D01*
Y161614D01*
X361450D01*
Y165276D01*
X361811D01*
X362579Y165429D01*
X363230Y165864D01*
X363665Y166515D01*
X363818Y167283D01*
X363665Y168052D01*
X363230Y168703D01*
X362579Y169138D01*
X361811Y169290D01*
X361450D01*
Y170276D01*
X361811D01*
X362579Y170429D01*
X363230Y170864D01*
X363665Y171515D01*
X363818Y172283D01*
X363665Y173052D01*
X363230Y173703D01*
X362579Y174138D01*
X361811Y174291D01*
D02*
G37*
G36*
X296850Y154528D02*
X283465D01*
Y123425D01*
X296850D01*
Y128806D01*
X302658D01*
Y127953D01*
X313090D01*
Y128806D01*
X325098D01*
X326075Y128935D01*
X326985Y129312D01*
X327766Y129911D01*
X329971Y132116D01*
X330260Y132338D01*
X330867Y133129D01*
X331249Y134051D01*
X331379Y135039D01*
X331249Y136028D01*
X330867Y136949D01*
X330260Y137741D01*
X329469Y138348D01*
X328548Y138729D01*
X327559Y138859D01*
X326570Y138729D01*
X325649Y138348D01*
X324858Y137741D01*
X324636Y137451D01*
X323536Y136351D01*
X313090D01*
Y137205D01*
X302658D01*
Y136351D01*
X298118D01*
X296850Y137619D01*
Y154528D01*
D02*
G37*
G36*
X357559Y138859D02*
X356570Y138729D01*
X355649Y138348D01*
X354858Y137741D01*
X354251Y136949D01*
X353869Y136028D01*
X353739Y135039D01*
X353869Y134051D01*
X354251Y133129D01*
X354858Y132338D01*
X355649Y131731D01*
X356570Y131350D01*
X357559Y131219D01*
X358548Y131350D01*
X359469Y131731D01*
X360260Y132338D01*
X360867Y133129D01*
X361249Y134051D01*
X361379Y135039D01*
X361249Y136028D01*
X360867Y136949D01*
X360260Y137741D01*
X359469Y138348D01*
X358548Y138729D01*
X357559Y138859D01*
D02*
G37*
G36*
X457087Y237795D02*
X408268D01*
Y191531D01*
X405282Y188545D01*
X404890Y187959D01*
X404753Y187268D01*
Y176257D01*
X388704Y160208D01*
X382185D01*
Y161614D01*
X381894D01*
X381687Y162114D01*
X382523Y162950D01*
X382807Y163376D01*
X382907Y163878D01*
Y165276D01*
X383268D01*
X384036Y165429D01*
X384687Y165864D01*
X385122Y166515D01*
X385275Y167283D01*
X385122Y168052D01*
X384687Y168703D01*
X384036Y169138D01*
X383268Y169290D01*
X379921D01*
X379153Y169138D01*
X378502Y168703D01*
X378067Y168052D01*
X377914Y167283D01*
X378067Y166515D01*
X378502Y165864D01*
X379153Y165429D01*
X379921Y165276D01*
X380282D01*
Y164422D01*
X379190Y163330D01*
X378905Y162904D01*
X378805Y162402D01*
Y161614D01*
X378051D01*
Y156496D01*
X382185D01*
Y156595D01*
X389504D01*
X390195Y156733D01*
X390781Y157124D01*
X390886Y157280D01*
X407836Y174231D01*
X408228Y174817D01*
X408365Y175508D01*
Y186520D01*
X410822Y188976D01*
X457087D01*
Y237795D01*
D02*
G37*
G36*
X278150Y182579D02*
X274213D01*
Y177067D01*
X278150D01*
Y182579D01*
D02*
G37*
G36*
X394980Y189000D02*
X394261Y188905D01*
X393590Y188628D01*
X393015Y188186D01*
X392573Y187610D01*
X392295Y186940D01*
X392240Y186517D01*
X390663Y184941D01*
X386713D01*
Y180807D01*
X391831D01*
Y182396D01*
X393397Y183962D01*
X393590Y183813D01*
X394261Y183536D01*
X394980Y183441D01*
X395700Y183536D01*
X396370Y183813D01*
X396946Y184255D01*
X397388Y184831D01*
X397665Y185501D01*
X397760Y186221D01*
X397665Y186940D01*
X397388Y187610D01*
X396946Y188186D01*
X396370Y188628D01*
X395700Y188905D01*
X394980Y189000D01*
D02*
G37*
G36*
X391831Y179626D02*
X386713D01*
Y175492D01*
X387861D01*
Y174508D01*
X387106D01*
Y173261D01*
X384982D01*
X384687Y173703D01*
X384036Y174138D01*
X383268Y174291D01*
X379921D01*
X379153Y174138D01*
X378502Y173703D01*
X378067Y173052D01*
X377914Y172283D01*
X378067Y171515D01*
X378502Y170864D01*
X379153Y170429D01*
X379921Y170276D01*
X383268D01*
X384036Y170429D01*
X384346Y170636D01*
X387106D01*
Y169390D01*
X391240D01*
Y174508D01*
X390486D01*
Y175492D01*
X391831D01*
Y179626D01*
D02*
G37*
G36*
X383268Y179290D02*
X379921D01*
X379153Y179138D01*
X378502Y178703D01*
X378431Y178596D01*
X376890D01*
X376388Y178496D01*
X375962Y178212D01*
X373875Y176125D01*
X373590Y175699D01*
X373491Y175197D01*
Y161614D01*
X372736D01*
Y160368D01*
X368110D01*
Y161614D01*
X363976D01*
Y156496D01*
X368110D01*
Y157743D01*
X372736D01*
Y156496D01*
X376870D01*
Y161614D01*
X376116D01*
Y174653D01*
X377433Y175971D01*
X378431D01*
X378502Y175864D01*
X379153Y175429D01*
X379921Y175276D01*
X383268D01*
X384036Y175429D01*
X384687Y175864D01*
X385122Y176515D01*
X385275Y177284D01*
X385122Y178051D01*
X384687Y178703D01*
X384036Y179138D01*
X383268Y179290D01*
D02*
G37*
G36*
X229354Y261169D02*
X224780D01*
Y253594D01*
X229354D01*
Y255575D01*
X232579D01*
Y255020D01*
X237303D01*
Y259744D01*
X232579D01*
Y259188D01*
X229354D01*
Y261169D01*
D02*
G37*
G36*
X338012Y345556D02*
X336803Y345397D01*
X335677Y344930D01*
X334710Y344188D01*
X333968Y343221D01*
X333501Y342094D01*
X333342Y340886D01*
X333501Y339677D01*
X333925Y338655D01*
X332803Y337533D01*
X332393Y337574D01*
X331312Y338655D01*
X331735Y339677D01*
X331894Y340886D01*
X331735Y342094D01*
X331269Y343221D01*
X330526Y344188D01*
X329559Y344930D01*
X328433Y345397D01*
X327224Y345556D01*
X326016Y345397D01*
X324889Y344930D01*
X323922Y344188D01*
X323180Y343221D01*
X322714Y342094D01*
X322555Y340886D01*
X322714Y339677D01*
X323180Y338551D01*
X323922Y337584D01*
X324889Y336842D01*
X326016Y336375D01*
X327224Y336216D01*
X328433Y336375D01*
X329455Y336799D01*
X330152Y336102D01*
Y309272D01*
X319520Y298640D01*
X319096Y298924D01*
X319122Y298985D01*
X319217Y299705D01*
X319122Y300424D01*
X318844Y301095D01*
X318403Y301670D01*
X317827Y302112D01*
X317156Y302390D01*
X316437Y302484D01*
X315718Y302390D01*
X315047Y302112D01*
X314472Y301670D01*
X313969Y301806D01*
X313878Y301894D01*
Y301969D01*
X311314D01*
X310391Y302891D01*
X309805Y303283D01*
X309114Y303420D01*
X307139D01*
X307067Y303468D01*
X306299Y303621D01*
X300000D01*
X299232Y303468D01*
X298581Y303033D01*
X298146Y302382D01*
X297993Y301614D01*
X298146Y300846D01*
X298581Y300195D01*
X299232Y299760D01*
X300000Y299607D01*
X306299D01*
X307067Y299760D01*
X307139Y299808D01*
X308132D01*
X308269Y299308D01*
X307382Y298421D01*
X307139D01*
X307067Y298468D01*
X306299Y298621D01*
X300000D01*
X299232Y298468D01*
X298581Y298033D01*
X298146Y297382D01*
X297993Y296614D01*
X298146Y295846D01*
X298581Y295195D01*
X299232Y294760D01*
X300000Y294607D01*
X306299D01*
X307067Y294760D01*
X307139Y294808D01*
X308130D01*
X308821Y294945D01*
X309407Y295337D01*
X311314Y297244D01*
X313878D01*
Y297515D01*
X313969Y297604D01*
X314472Y297739D01*
X315047Y297297D01*
X315718Y297020D01*
X316437Y296925D01*
X317156Y297020D01*
X317218Y297045D01*
X317501Y296621D01*
X313793Y292913D01*
X310531D01*
Y287402D01*
X311581D01*
Y285951D01*
X308557Y282927D01*
X307790D01*
X307718Y283033D01*
X307067Y283469D01*
X306299Y283621D01*
X300000D01*
X299232Y283469D01*
X298581Y283033D01*
X298173Y282423D01*
X297921Y282398D01*
X297645Y282428D01*
X297385Y282818D01*
X291470Y288733D01*
Y295276D01*
X291370Y295778D01*
X291086Y296204D01*
X289747Y297542D01*
X289321Y297827D01*
X288903Y297910D01*
X288821Y298033D01*
X288170Y298468D01*
X287402Y298621D01*
X281102D01*
X280334Y298468D01*
X279683Y298033D01*
X279248Y297382D01*
X279095Y296614D01*
X279248Y295846D01*
X279683Y295195D01*
X280334Y294760D01*
X281102Y294607D01*
X287402D01*
X288170Y294760D01*
X288428Y294933D01*
X288845Y294618D01*
Y293619D01*
X288345Y293351D01*
X288170Y293468D01*
X287402Y293621D01*
X281102D01*
X280334Y293468D01*
X279683Y293033D01*
X279425Y292647D01*
X279269Y292542D01*
X276415Y289688D01*
X276196Y289542D01*
X273446Y286792D01*
X273161Y286366D01*
X273061Y285864D01*
Y247476D01*
X273125Y247155D01*
X272665Y246908D01*
X263517Y256055D01*
Y271457D01*
X263417Y271959D01*
X263133Y272385D01*
X261122Y274396D01*
Y278051D01*
X254255Y278051D01*
X254255Y278051D01*
X254255Y278051D01*
X254142Y278051D01*
X254035Y278051D01*
X253642Y278308D01*
X253642Y278354D01*
Y281791D01*
X246555D01*
Y281629D01*
X243996D01*
Y282185D01*
X239272D01*
Y277461D01*
X243996D01*
Y278016D01*
X246555D01*
Y277854D01*
X253422Y277854D01*
X253422Y277854D01*
X253422Y277854D01*
X253535Y277854D01*
X253642Y277854D01*
X254035Y277598D01*
X254035Y277551D01*
Y274114D01*
X257691D01*
X260892Y270913D01*
Y255616D01*
X260514Y255217D01*
X254255Y255217D01*
X254255Y255217D01*
X254255Y255217D01*
X254142Y255217D01*
X254035Y255217D01*
X253642Y255473D01*
X253642Y255520D01*
Y258957D01*
X246555D01*
Y258794D01*
X243602D01*
Y259744D01*
X238878D01*
Y255020D01*
X243602D01*
Y255182D01*
X246555D01*
Y255020D01*
X253422Y255020D01*
X253422Y255020D01*
X253422Y255020D01*
X253535Y255020D01*
X253642Y255020D01*
X254035Y254763D01*
X254035Y254716D01*
Y251279D01*
X261122D01*
Y251279D01*
X261480Y251428D01*
X279190Y233717D01*
X279616Y233433D01*
X280118Y233333D01*
X285325D01*
X285593Y232833D01*
X285530Y232739D01*
X285400Y232087D01*
X285530Y231434D01*
X285900Y230880D01*
Y230734D01*
X285530Y230180D01*
X285400Y229528D01*
X285416Y229451D01*
X284955Y229205D01*
X284885Y229275D01*
X284459Y229559D01*
X284449Y229561D01*
Y230709D01*
X278937D01*
Y225984D01*
X284449D01*
X284750Y225811D01*
X284832Y225756D01*
X285335Y225656D01*
X286059D01*
X286453Y225392D01*
X287106Y225262D01*
X290846D01*
X291499Y225392D01*
X292053Y225762D01*
X292423Y226316D01*
X292552Y226969D01*
X292423Y227621D01*
X292053Y228175D01*
Y228321D01*
X292423Y228875D01*
X292552Y229528D01*
X292423Y230180D01*
X292053Y230734D01*
Y230880D01*
X292423Y231434D01*
X292552Y232087D01*
X292423Y232739D01*
X292053Y233293D01*
Y233439D01*
X292423Y233993D01*
X292552Y234646D01*
X292423Y235298D01*
X292053Y235852D01*
Y235998D01*
X292423Y236552D01*
X292552Y237205D01*
X292506Y237439D01*
X292518Y237484D01*
X292980Y237615D01*
X292996Y237598D01*
X293164Y237193D01*
X293605Y236617D01*
X294181Y236175D01*
X294258Y236143D01*
Y232185D01*
X294358Y231683D01*
X294643Y231257D01*
X309479Y216421D01*
Y214876D01*
X309401Y214844D01*
X308826Y214403D01*
X308384Y213827D01*
X308106Y213156D01*
X308012Y212437D01*
X308106Y211718D01*
X308384Y211047D01*
X308826Y210472D01*
X309401Y210030D01*
X310072Y209752D01*
X310791Y209657D01*
X311511Y209752D01*
X311588Y209784D01*
X312935Y208437D01*
Y205902D01*
X313035Y205399D01*
X313320Y204973D01*
X315111Y203182D01*
X315537Y202898D01*
X316039Y202798D01*
X321756D01*
X322258Y202898D01*
X322684Y203182D01*
X323504Y204002D01*
X324213D01*
Y202953D01*
X329724D01*
Y203539D01*
X330224Y203746D01*
X331198Y202773D01*
X331624Y202488D01*
X332126Y202388D01*
X335499D01*
X335669Y201888D01*
X335035Y201402D01*
X334428Y200611D01*
X334180Y200013D01*
X315598D01*
Y201161D01*
X311719D01*
X297952Y214928D01*
X297526Y215213D01*
X297024Y215313D01*
X292512D01*
X292244Y215813D01*
X292423Y216079D01*
X292552Y216732D01*
X292423Y217385D01*
X292053Y217939D01*
Y218085D01*
X292423Y218638D01*
X292552Y219291D01*
X292423Y219944D01*
X292263Y220183D01*
X292086Y220571D01*
X292263Y220959D01*
X292423Y221198D01*
X292552Y221850D01*
X292423Y222503D01*
X292053Y223057D01*
X291499Y223427D01*
X290846Y223556D01*
X287106D01*
X286453Y223427D01*
X285900Y223057D01*
X285530Y222503D01*
X285400Y221850D01*
X285530Y221198D01*
X285690Y220959D01*
X285867Y220571D01*
X285690Y220183D01*
X285530Y219944D01*
X285400Y219291D01*
X285530Y218638D01*
X285900Y218085D01*
Y217939D01*
X285530Y217385D01*
X285400Y216732D01*
X285530Y216079D01*
X285900Y215526D01*
Y215380D01*
X285530Y214826D01*
X285432Y214332D01*
X284941Y214117D01*
X283740Y215317D01*
Y219535D01*
X279165D01*
Y211961D01*
X280140D01*
Y210827D01*
X278642D01*
Y206102D01*
X284154D01*
Y210484D01*
X284653Y210691D01*
X284658Y210686D01*
X285084Y210402D01*
X285356Y210347D01*
X285592Y209884D01*
X285593Y209802D01*
X285530Y209708D01*
X285400Y209055D01*
X285530Y208402D01*
X285900Y207849D01*
Y207702D01*
X285530Y207149D01*
X285400Y206496D01*
X285530Y205843D01*
X285900Y205290D01*
X286453Y204920D01*
X287106Y204790D01*
X290846D01*
X291499Y204920D01*
X292053Y205290D01*
X292423Y205843D01*
X292552Y206496D01*
X292423Y207149D01*
X292053Y207702D01*
Y207849D01*
X292423Y208402D01*
X292552Y209055D01*
X292423Y209708D01*
X292263Y209947D01*
X292086Y210335D01*
X292263Y210722D01*
X292423Y210961D01*
X292552Y211614D01*
X292439Y212187D01*
X292677Y212687D01*
X296480D01*
X308024Y201144D01*
Y196587D01*
X315598D01*
Y197388D01*
X334180D01*
X334428Y196791D01*
X335035Y196000D01*
X335826Y195393D01*
X336748Y195011D01*
X337736Y194881D01*
X338725Y195011D01*
X339646Y195393D01*
X340437Y196000D01*
X341044Y196791D01*
X341426Y197712D01*
X341556Y198701D01*
X341426Y199689D01*
X341044Y200611D01*
X340437Y201402D01*
X339804Y201888D01*
X339974Y202388D01*
X344180D01*
X344428Y201791D01*
X345035Y201000D01*
X345826Y200393D01*
X346747Y200011D01*
X347736Y199881D01*
X348725Y200011D01*
X349646Y200393D01*
X350437Y201000D01*
X350617Y201233D01*
X351116Y201063D01*
Y198937D01*
X349633Y197454D01*
X349236Y197533D01*
X346236D01*
X345344Y197355D01*
X344587Y196850D01*
X344081Y196093D01*
X343904Y195201D01*
Y192201D01*
X344081Y191308D01*
X344587Y190552D01*
X345344Y190046D01*
X346236Y189869D01*
X349205D01*
X349284Y189780D01*
X349472Y189428D01*
X346201Y186157D01*
X302421D01*
X296710Y191868D01*
X296124Y192259D01*
X295433Y192397D01*
X239611D01*
X239183Y192825D01*
X238402Y193424D01*
X237492Y193801D01*
X236516Y193930D01*
X227658D01*
X227581Y193920D01*
X227504Y193930D01*
X208293D01*
X208265Y194146D01*
X207883Y195068D01*
X207276Y195859D01*
X206485Y196466D01*
X205563Y196847D01*
X204575Y196978D01*
X200090D01*
X195745Y201322D01*
Y213245D01*
X203236Y220735D01*
X205807D01*
Y219882D01*
X211610D01*
X213687Y217805D01*
X214468Y217205D01*
X215378Y216829D01*
X216354Y216700D01*
X225492D01*
X226468Y216829D01*
X227378Y217205D01*
X228044Y217717D01*
X230512D01*
Y223228D01*
X228044D01*
X227378Y223739D01*
X226468Y224116D01*
X225492Y224245D01*
X217917D01*
X216240Y225922D01*
Y229134D01*
X205807D01*
Y228280D01*
X201673D01*
X200697Y228152D01*
X199787Y227775D01*
X199006Y227175D01*
X196207Y224376D01*
X195745Y224568D01*
Y243811D01*
X205346Y253413D01*
X219870D01*
X220847Y253541D01*
X220975Y253594D01*
X222354D01*
Y254377D01*
X222538Y254518D01*
X222734Y254714D01*
X223334Y255496D01*
X223711Y256405D01*
X223839Y257382D01*
X223711Y258358D01*
X223334Y259268D01*
X222734Y260049D01*
X222354Y260341D01*
Y261169D01*
X217779D01*
Y260957D01*
X203783D01*
X202807Y260829D01*
X201897Y260452D01*
X201116Y259853D01*
X196207Y254943D01*
X195745Y255135D01*
Y260882D01*
X210960Y276098D01*
X211319Y276050D01*
X217736D01*
Y276035D01*
X219852D01*
X220067Y276007D01*
X220282Y276035D01*
X222311D01*
Y276787D01*
X222734Y277112D01*
X223334Y277893D01*
X223711Y278803D01*
X223839Y279780D01*
X223711Y280756D01*
X223334Y281666D01*
X222734Y282447D01*
X222691Y282490D01*
X222311Y282782D01*
Y283610D01*
X219126D01*
X218935Y284072D01*
X264912Y330049D01*
X265511Y330830D01*
X265888Y331740D01*
X266017Y332716D01*
Y337638D01*
X265991Y337830D01*
X266544Y338551D01*
X267011Y339677D01*
X267170Y340886D01*
X267011Y342094D01*
X266544Y343221D01*
X265802Y344188D01*
X264835Y344930D01*
X263709Y345397D01*
X262500Y345556D01*
X261291Y345397D01*
X260165Y344930D01*
X259198Y344188D01*
X258456Y343221D01*
X257989Y342094D01*
X257830Y340886D01*
X257989Y339677D01*
X258456Y338551D01*
X258572Y338400D01*
X258472Y337638D01*
Y334279D01*
X207667Y283475D01*
X207667Y283475D01*
X189305Y265112D01*
X188705Y264331D01*
X188329Y263421D01*
X188200Y262445D01*
Y245374D01*
Y214807D01*
Y199760D01*
X188329Y198784D01*
X188705Y197874D01*
X189305Y197092D01*
X194755Y191643D01*
Y187157D01*
X194885Y186169D01*
X195266Y185247D01*
X195874Y184456D01*
X196665Y183849D01*
X197586Y183468D01*
X198575Y183337D01*
X204575D01*
X205563Y183468D01*
X206485Y183849D01*
X207276Y184456D01*
X207883Y185247D01*
X208265Y186169D01*
X208293Y186385D01*
X222354D01*
Y180807D01*
X222482Y179831D01*
X222859Y178921D01*
X223459Y178140D01*
X223839Y177848D01*
Y177020D01*
X228413D01*
Y177848D01*
X228794Y178140D01*
X228880Y178252D01*
X229354Y178092D01*
Y172976D01*
X229482Y172000D01*
X229859Y171090D01*
X230458Y170309D01*
X231240Y169709D01*
X232150Y169333D01*
X233126Y169204D01*
X234102Y169333D01*
X235012Y169709D01*
X235793Y170309D01*
X236393Y171090D01*
X236770Y172000D01*
X236898Y172976D01*
Y180807D01*
X236770Y181783D01*
X236393Y182693D01*
X235793Y183475D01*
X235413Y183766D01*
Y184595D01*
X230839D01*
Y183766D01*
X230458Y183475D01*
X230372Y183362D01*
X229898Y183522D01*
Y186385D01*
X234953D01*
X246228Y175111D01*
Y168799D01*
Y135335D01*
X246356Y134358D01*
X246733Y133448D01*
X247333Y132667D01*
X247539Y132460D01*
Y127953D01*
X257972D01*
Y128806D01*
X263779D01*
Y123425D01*
X277165D01*
Y154528D01*
X263779D01*
Y137619D01*
X262512Y136351D01*
X257972D01*
Y137205D01*
X253772D01*
Y165027D01*
X255807D01*
Y164173D01*
X262303D01*
Y165027D01*
X268504D01*
X269480Y165155D01*
X270390Y165532D01*
X271171Y166132D01*
X271368Y166329D01*
X271968Y167110D01*
X272345Y168020D01*
X272473Y168996D01*
X272345Y169972D01*
X271968Y170882D01*
X271368Y171664D01*
X270587Y172263D01*
X269677Y172640D01*
X268701Y172768D01*
X268139Y172695D01*
X267763Y173024D01*
Y175479D01*
X269351Y177067D01*
X270669D01*
Y178517D01*
X270926Y178901D01*
X271109Y179823D01*
X270926Y180745D01*
X270669Y181129D01*
Y182579D01*
X266732D01*
Y181260D01*
X263651Y178179D01*
X263129Y177398D01*
X262946Y176476D01*
Y172572D01*
X262303D01*
Y173425D01*
X255807D01*
Y172572D01*
X253772D01*
Y176673D01*
X253644Y177650D01*
X253267Y178559D01*
X252667Y179341D01*
X243686Y188322D01*
X243877Y188784D01*
X294685D01*
X300396Y183073D01*
X300982Y182682D01*
X301673Y182544D01*
X346949D01*
X347640Y182682D01*
X348226Y183073D01*
X356273Y191120D01*
X356892Y191094D01*
X357045Y190864D01*
X357697Y190429D01*
X358465Y190276D01*
X361811D01*
X362579Y190429D01*
X363230Y190864D01*
X363665Y191515D01*
X363818Y192283D01*
X363665Y193052D01*
X363230Y193703D01*
X362579Y194138D01*
X361811Y194290D01*
X358465D01*
X357697Y194138D01*
X357523Y194022D01*
X357023Y194289D01*
Y195278D01*
X357523Y195545D01*
X357697Y195429D01*
X358465Y195276D01*
X361811D01*
X362579Y195429D01*
X363230Y195864D01*
X363665Y196515D01*
X363818Y197283D01*
X363665Y198052D01*
X363230Y198703D01*
X362579Y199138D01*
X361811Y199291D01*
X358465D01*
X357697Y199138D01*
X357523Y199022D01*
X357023Y199289D01*
Y200138D01*
X359348Y202463D01*
X359547Y202437D01*
X360267Y202532D01*
X360937Y202809D01*
X361513Y203251D01*
X361954Y203827D01*
X362232Y204497D01*
X362262Y204725D01*
X362762Y204692D01*
Y201006D01*
X362862Y200503D01*
X363147Y200078D01*
X376869Y186355D01*
X377295Y186071D01*
X377797Y185971D01*
X378431D01*
X378502Y185864D01*
X379153Y185429D01*
X379921Y185276D01*
X383268D01*
X384036Y185429D01*
X384687Y185864D01*
X385122Y186515D01*
X385275Y187284D01*
X385122Y188051D01*
X384687Y188703D01*
X384036Y189138D01*
X383268Y189290D01*
X379921D01*
X379153Y189138D01*
X378502Y188703D01*
X378034Y188903D01*
X374837Y192100D01*
X374998Y192573D01*
X375129Y192591D01*
X375799Y192868D01*
X376375Y193310D01*
X376817Y193886D01*
X377094Y194556D01*
X377189Y195276D01*
X377094Y195995D01*
X376817Y196665D01*
X376375Y197241D01*
X375799Y197683D01*
X375129Y197960D01*
X374410Y198055D01*
X373690Y197960D01*
X373613Y197929D01*
X373065Y198477D01*
Y212153D01*
X378752Y217841D01*
X382368D01*
X382439Y217734D01*
X383090Y217299D01*
X383858Y217146D01*
X387205D01*
X387973Y217299D01*
X388624Y217734D01*
X389059Y218386D01*
X389212Y219153D01*
X389059Y219922D01*
X388624Y220573D01*
X387973Y221008D01*
X387205Y221161D01*
X383858D01*
X383090Y221008D01*
X382439Y220573D01*
X382368Y220466D01*
X378209D01*
X377706Y220366D01*
X377280Y220082D01*
X370824Y213625D01*
X370539Y213199D01*
X370439Y212697D01*
Y197933D01*
X370539Y197431D01*
X370824Y197005D01*
X371505Y196323D01*
X371470Y196174D01*
X370920Y196016D01*
X365387Y201549D01*
Y212146D01*
X365748D01*
X366516Y212299D01*
X367167Y212734D01*
X367602Y213386D01*
X367755Y214154D01*
X367602Y214922D01*
X367167Y215573D01*
X366516Y216008D01*
X365748Y216161D01*
X362402D01*
X361633Y216008D01*
X360982Y215573D01*
X360547Y214922D01*
X360395Y214154D01*
X360547Y213386D01*
X360982Y212734D01*
X361633Y212299D01*
X362402Y212146D01*
X362762D01*
Y205741D01*
X362262Y205708D01*
X362232Y205936D01*
X361954Y206606D01*
X361513Y207182D01*
X360937Y207624D01*
X360267Y207902D01*
X359547Y207996D01*
X358828Y207902D01*
X358157Y207624D01*
X357582Y207182D01*
X357140Y206606D01*
X356862Y205936D01*
X356768Y205217D01*
X356794Y205018D01*
X354242Y202466D01*
X353742Y202673D01*
Y206724D01*
X353642Y207227D01*
X353357Y207653D01*
X350881Y210129D01*
X350455Y210414D01*
X350362Y210942D01*
X350437Y211000D01*
X351045Y211791D01*
X351426Y212712D01*
X351556Y213701D01*
X351426Y214689D01*
X351045Y215611D01*
X350437Y216402D01*
X349646Y217009D01*
X348725Y217391D01*
X347736Y217521D01*
X346747Y217391D01*
X345826Y217009D01*
X345035Y216402D01*
X344428Y215611D01*
X344046Y214689D01*
X343916Y213701D01*
X344046Y212712D01*
X344428Y211791D01*
X345024Y211013D01*
X344998Y210830D01*
X344891Y210513D01*
X344144D01*
X340528Y214129D01*
X340103Y214413D01*
X339600Y214513D01*
X338777D01*
X338725Y215011D01*
X339646Y215392D01*
X340437Y216000D01*
X341044Y216791D01*
X341426Y217712D01*
X341556Y218701D01*
X341426Y219689D01*
X341044Y220611D01*
X340437Y221402D01*
X339646Y222009D01*
X338725Y222391D01*
X338777Y222888D01*
X344023D01*
X344046Y222712D01*
X344428Y221791D01*
X345035Y221000D01*
X345826Y220392D01*
X346747Y220011D01*
X347736Y219881D01*
X348725Y220011D01*
X349646Y220392D01*
X350437Y221000D01*
X351045Y221791D01*
X351426Y222712D01*
X351556Y223701D01*
X351426Y224690D01*
X351045Y225611D01*
X350437Y226402D01*
X349646Y227009D01*
X348725Y227391D01*
X347736Y227521D01*
X346747Y227391D01*
X345826Y227009D01*
X345035Y226402D01*
X344428Y225611D01*
X344388Y225513D01*
X335530D01*
X328210Y232833D01*
X328211Y232870D01*
X328366Y233333D01*
X330283D01*
X330283Y233333D01*
X330625D01*
X331185Y232773D01*
X331611Y232488D01*
X332114Y232388D01*
X344180D01*
X344428Y231791D01*
X345035Y231000D01*
X345826Y230393D01*
X346747Y230011D01*
X347736Y229881D01*
X348725Y230011D01*
X349646Y230393D01*
X350437Y231000D01*
X351045Y231791D01*
X351426Y232712D01*
X351556Y233701D01*
X351426Y234689D01*
X351216Y235197D01*
X351640Y235480D01*
X353018Y234102D01*
Y230315D01*
X353118Y229813D01*
X353403Y229387D01*
X359564Y223225D01*
X359990Y222941D01*
X360492Y222841D01*
X360911D01*
X360982Y222734D01*
X361633Y222299D01*
X362402Y222147D01*
X365748D01*
X366516Y222299D01*
X367167Y222734D01*
X367602Y223386D01*
X367755Y224153D01*
X367602Y224922D01*
X367167Y225573D01*
X366516Y226008D01*
X365748Y226161D01*
X362402D01*
X361633Y226008D01*
X360982Y225573D01*
X360934Y225568D01*
X355643Y230859D01*
Y234646D01*
X355543Y235148D01*
X355259Y235574D01*
X351704Y239129D01*
X351278Y239413D01*
X350776Y239513D01*
X348777D01*
X348725Y240011D01*
X349646Y240392D01*
X350437Y241000D01*
X351045Y241791D01*
X351426Y242712D01*
X351556Y243701D01*
X351450Y244511D01*
X351923Y244744D01*
X362762Y233905D01*
Y231161D01*
X362402D01*
X361633Y231008D01*
X360982Y230573D01*
X360547Y229922D01*
X360395Y229153D01*
X360547Y228385D01*
X360982Y227734D01*
X361633Y227299D01*
X362402Y227147D01*
X365748D01*
X366516Y227299D01*
X367167Y227734D01*
X367602Y228385D01*
X367755Y229153D01*
X367602Y229922D01*
X367167Y230573D01*
X366516Y231008D01*
X365748Y231161D01*
X365387D01*
Y234449D01*
X365287Y234951D01*
X365003Y235377D01*
X350251Y250129D01*
X350183Y250174D01*
X350163Y250789D01*
X350437Y251000D01*
X351045Y251791D01*
X351426Y252712D01*
X351556Y253701D01*
X351426Y254690D01*
X351045Y255611D01*
X350437Y256402D01*
X349646Y257009D01*
X348725Y257391D01*
X347736Y257521D01*
X346747Y257391D01*
X345826Y257009D01*
X345035Y256402D01*
X344428Y255611D01*
X344046Y254690D01*
X343916Y253701D01*
X344046Y252712D01*
X344428Y251791D01*
X345024Y251013D01*
X344998Y250830D01*
X344891Y250513D01*
X344144D01*
X340528Y254129D01*
X340103Y254414D01*
X339600Y254513D01*
X338777D01*
X338725Y255011D01*
X339646Y255393D01*
X340437Y256000D01*
X341044Y256791D01*
X341426Y257712D01*
X341556Y258701D01*
X341426Y259689D01*
X341044Y260611D01*
X340437Y261402D01*
X339646Y262009D01*
X338725Y262391D01*
X337736Y262521D01*
X336748Y262391D01*
X335826Y262009D01*
X335035Y261402D01*
X334428Y260611D01*
X334046Y259689D01*
X333916Y258701D01*
X334046Y257712D01*
X334428Y256791D01*
X335035Y256000D01*
X335826Y255393D01*
X336748Y255011D01*
X336696Y254513D01*
X334986D01*
X334484Y254414D01*
X334058Y254129D01*
X326124Y246195D01*
X322549D01*
X322281Y246694D01*
X322344Y246788D01*
X322474Y247441D01*
X322344Y248094D01*
X321974Y248647D01*
Y248794D01*
X322344Y249347D01*
X322474Y250000D01*
X322344Y250653D01*
X321974Y251206D01*
Y251353D01*
X322344Y251906D01*
X322474Y252559D01*
X322344Y253212D01*
X321974Y253765D01*
X321421Y254135D01*
X320768Y254265D01*
X317028D01*
X316375Y254135D01*
X315821Y253765D01*
X315451Y253212D01*
X315322Y252559D01*
X315451Y251906D01*
X315821Y251353D01*
Y251206D01*
X315451Y250653D01*
X315322Y250000D01*
X315451Y249347D01*
X315821Y248794D01*
Y248647D01*
X315451Y248094D01*
X315322Y247441D01*
X315451Y246788D01*
X315821Y246235D01*
Y246088D01*
X315451Y245535D01*
X315375Y245153D01*
X314833Y244988D01*
X297769Y262052D01*
Y270509D01*
X298269Y270661D01*
X298581Y270195D01*
X299232Y269760D01*
X300000Y269607D01*
X306299D01*
X307067Y269760D01*
X307718Y270195D01*
X308154Y270846D01*
X308306Y271614D01*
X308154Y272382D01*
X307718Y273033D01*
X307067Y273468D01*
X306299Y273621D01*
X300000D01*
X299232Y273468D01*
X298581Y273033D01*
X298269Y272567D01*
X297769Y272719D01*
Y275509D01*
X298269Y275661D01*
X298581Y275195D01*
X299232Y274760D01*
X300000Y274607D01*
X306299D01*
X307067Y274760D01*
X307718Y275195D01*
X307790Y275302D01*
X310079D01*
X310581Y275401D01*
X311007Y275686D01*
X312847Y277526D01*
X315945D01*
Y276772D01*
X321063D01*
Y279541D01*
X334393Y292871D01*
X334677Y293297D01*
X334777Y293799D01*
Y335795D01*
X335781Y336799D01*
X336803Y336375D01*
X338012Y336216D01*
X339220Y336375D01*
X340347Y336842D01*
X341314Y337584D01*
X342056Y338551D01*
X342523Y339677D01*
X342682Y340886D01*
X342523Y342094D01*
X342056Y343221D01*
X341314Y344188D01*
X340347Y344930D01*
X339220Y345397D01*
X338012Y345556D01*
D02*
G37*
G36*
X267894Y355556D02*
X266685Y355397D01*
X265559Y354930D01*
X264592Y354188D01*
X263849Y353221D01*
X263383Y352095D01*
X263224Y350886D01*
X263383Y349677D01*
X263849Y348551D01*
X264592Y347584D01*
X265559Y346842D01*
X266685Y346375D01*
X267894Y346216D01*
X269102Y346375D01*
X270229Y346842D01*
X271196Y347584D01*
X271938Y348551D01*
X272405Y349677D01*
X272564Y350886D01*
X272405Y352095D01*
X271938Y353221D01*
X271196Y354188D01*
X270229Y354930D01*
X269102Y355397D01*
X267894Y355556D01*
D02*
G37*
G36*
X365846Y353207D02*
X364303Y353055D01*
X362819Y352605D01*
X361451Y351874D01*
X360252Y350890D01*
X359268Y349691D01*
X358537Y348323D01*
X358086Y346839D01*
X357934Y345295D01*
X358086Y343752D01*
X358537Y342267D01*
X359268Y340899D01*
X360252Y339701D01*
X361451Y338717D01*
X362819Y337985D01*
X364303Y337535D01*
X365846Y337383D01*
X367390Y337535D01*
X368874Y337985D01*
X370242Y338717D01*
X371441Y339701D01*
X372425Y340899D01*
X373156Y342267D01*
X373607Y343752D01*
X373759Y345295D01*
X373607Y346839D01*
X373156Y348323D01*
X372425Y349691D01*
X371441Y350890D01*
X370242Y351874D01*
X368874Y352605D01*
X367390Y353055D01*
X365846Y353207D01*
D02*
G37*
G36*
X284075Y345556D02*
X282866Y345397D01*
X281740Y344930D01*
X280773Y344188D01*
X280031Y343221D01*
X279564Y342094D01*
X279405Y340886D01*
X279564Y339677D01*
X280031Y338551D01*
X280773Y337584D01*
X281740Y336842D01*
X282866Y336375D01*
X284075Y336216D01*
X285283Y336375D01*
X286410Y336842D01*
X287377Y337584D01*
X288119Y338551D01*
X288586Y339677D01*
X288745Y340886D01*
X288586Y342094D01*
X288119Y343221D01*
X287377Y344188D01*
X286410Y344930D01*
X285283Y345397D01*
X284075Y345556D01*
D02*
G37*
G36*
X234665Y353207D02*
X233122Y353055D01*
X231638Y352605D01*
X230270Y351874D01*
X229071Y350890D01*
X228087Y349691D01*
X227356Y348323D01*
X226905Y346839D01*
X226753Y345295D01*
X226905Y343752D01*
X227356Y342267D01*
X228087Y340899D01*
X229071Y339701D01*
X230270Y338717D01*
X231638Y337985D01*
X233122Y337535D01*
X234665Y337383D01*
X236209Y337535D01*
X237693Y337985D01*
X239061Y338717D01*
X240260Y339701D01*
X241244Y340899D01*
X241975Y342267D01*
X242425Y343752D01*
X242578Y345295D01*
X242425Y346839D01*
X241975Y348323D01*
X241244Y349691D01*
X240260Y350890D01*
X239061Y351874D01*
X237693Y352605D01*
X236209Y353055D01*
X234665Y353207D01*
D02*
G37*
G36*
X311043Y355556D02*
X309835Y355397D01*
X308708Y354930D01*
X307741Y354188D01*
X306999Y353221D01*
X306533Y352095D01*
X306374Y350886D01*
X306533Y349677D01*
X306999Y348551D01*
X307741Y347584D01*
X308708Y346842D01*
X309835Y346375D01*
X311043Y346216D01*
X312252Y346375D01*
X313378Y346842D01*
X314345Y347584D01*
X315088Y348551D01*
X315554Y349677D01*
X315713Y350886D01*
X315554Y352095D01*
X315088Y353221D01*
X314345Y354188D01*
X313378Y354930D01*
X312252Y355397D01*
X311043Y355556D01*
D02*
G37*
G36*
X321831D02*
X320622Y355397D01*
X319496Y354930D01*
X318529Y354188D01*
X317787Y353221D01*
X317320Y352095D01*
X317161Y350886D01*
X317320Y349677D01*
X317787Y348551D01*
X318529Y347584D01*
X319496Y346842D01*
X320622Y346375D01*
X321831Y346216D01*
X323039Y346375D01*
X324166Y346842D01*
X325133Y347584D01*
X325875Y348551D01*
X326342Y349677D01*
X326501Y350886D01*
X326342Y352095D01*
X325875Y353221D01*
X325133Y354188D01*
X324166Y354930D01*
X323039Y355397D01*
X321831Y355556D01*
D02*
G37*
G36*
X300256D02*
X299047Y355397D01*
X297921Y354930D01*
X296954Y354188D01*
X296212Y353221D01*
X295745Y352095D01*
X295586Y350886D01*
X295745Y349677D01*
X296212Y348551D01*
X296954Y347584D01*
X297921Y346842D01*
X299047Y346375D01*
X300256Y346216D01*
X301465Y346375D01*
X302591Y346842D01*
X303558Y347584D01*
X304300Y348551D01*
X304767Y349677D01*
X304926Y350886D01*
X304767Y352095D01*
X304300Y353221D01*
X303558Y354188D01*
X302591Y354930D01*
X301465Y355397D01*
X300256Y355556D01*
D02*
G37*
G36*
X278681D02*
X277472Y355397D01*
X276346Y354930D01*
X275379Y354188D01*
X274637Y353221D01*
X274170Y352095D01*
X274011Y350886D01*
X274170Y349677D01*
X274637Y348551D01*
X275379Y347584D01*
X276346Y346842D01*
X277472Y346375D01*
X278681Y346216D01*
X279890Y346375D01*
X281016Y346842D01*
X281983Y347584D01*
X282725Y348551D01*
X283192Y349677D01*
X283351Y350886D01*
X283192Y352095D01*
X282725Y353221D01*
X281983Y354188D01*
X281016Y354930D01*
X279890Y355397D01*
X278681Y355556D01*
D02*
G37*
G36*
X289469D02*
X288260Y355397D01*
X287134Y354930D01*
X286166Y354188D01*
X285424Y353221D01*
X284958Y352095D01*
X284799Y350886D01*
X284958Y349677D01*
X285424Y348551D01*
X286166Y347584D01*
X287134Y346842D01*
X288260Y346375D01*
X289469Y346216D01*
X290677Y346375D01*
X291803Y346842D01*
X292771Y347584D01*
X293513Y348551D01*
X293979Y349677D01*
X294138Y350886D01*
X293979Y352095D01*
X293513Y353221D01*
X292771Y354188D01*
X291803Y354930D01*
X290677Y355397D01*
X289469Y355556D01*
D02*
G37*
G36*
X273287Y345556D02*
X272079Y345397D01*
X270953Y344930D01*
X269985Y344188D01*
X269243Y343221D01*
X268777Y342094D01*
X268618Y340886D01*
X268777Y339677D01*
X269243Y338551D01*
X269985Y337584D01*
X270953Y336842D01*
X272079Y336375D01*
X273287Y336216D01*
X274496Y336375D01*
X275622Y336842D01*
X276589Y337584D01*
X277332Y338551D01*
X277798Y339677D01*
X277957Y340886D01*
X277798Y342094D01*
X277332Y343221D01*
X276589Y344188D01*
X275622Y344930D01*
X274496Y345397D01*
X273287Y345556D01*
D02*
G37*
G36*
X229311Y283610D02*
X224736D01*
Y276035D01*
X229311D01*
Y278016D01*
X232973D01*
Y277461D01*
X237697D01*
Y282185D01*
X232973D01*
Y281629D01*
X229311D01*
Y283610D01*
D02*
G37*
G36*
X287402Y303621D02*
X281102D01*
X280334Y303468D01*
X279683Y303033D01*
X279248Y302382D01*
X279095Y301614D01*
X279248Y300846D01*
X279683Y300195D01*
X280334Y299760D01*
X281102Y299607D01*
X287402D01*
X288170Y299760D01*
X288821Y300195D01*
X289256Y300846D01*
X289409Y301614D01*
X289256Y302382D01*
X288821Y303033D01*
X288170Y303468D01*
X287402Y303621D01*
D02*
G37*
G36*
X316437Y345556D02*
X315228Y345397D01*
X314102Y344930D01*
X313135Y344188D01*
X312393Y343221D01*
X311926Y342094D01*
X311767Y340886D01*
X311926Y339677D01*
X312393Y338551D01*
X313135Y337584D01*
X314102Y336842D01*
X314449Y336698D01*
X314567Y336108D01*
X307168Y328710D01*
X306706Y328901D01*
Y336355D01*
X306858Y336375D01*
X307985Y336842D01*
X308952Y337584D01*
X309694Y338551D01*
X310160Y339677D01*
X310319Y340886D01*
X310160Y342094D01*
X309694Y343221D01*
X308952Y344188D01*
X307985Y344930D01*
X306858Y345397D01*
X305650Y345556D01*
X304441Y345397D01*
X303315Y344930D01*
X302347Y344188D01*
X301605Y343221D01*
X301139Y342094D01*
X300980Y340886D01*
X301139Y339677D01*
X301605Y338551D01*
X302347Y337584D01*
X303315Y336842D01*
X304081Y336524D01*
Y328674D01*
X291549Y316142D01*
X288779D01*
Y312008D01*
X293898D01*
Y314777D01*
X294972Y315852D01*
X295472Y315645D01*
Y312008D01*
X300590D01*
Y316142D01*
X299344D01*
Y317173D01*
X317109Y334938D01*
X317394Y335364D01*
X317494Y335866D01*
Y336355D01*
X317646Y336375D01*
X318772Y336842D01*
X319739Y337584D01*
X320481Y338551D01*
X320948Y339677D01*
X321107Y340886D01*
X320948Y342094D01*
X320481Y343221D01*
X319739Y344188D01*
X318772Y344930D01*
X317646Y345397D01*
X316437Y345556D01*
D02*
G37*
G36*
X300590Y310827D02*
X295472D01*
Y307159D01*
X295181Y307012D01*
X294972Y306982D01*
X293898Y308057D01*
Y310827D01*
X288779D01*
Y306693D01*
X291549D01*
X292782Y305460D01*
Y288976D01*
X292882Y288474D01*
X293166Y288048D01*
X295529Y285686D01*
X295954Y285402D01*
X296457Y285301D01*
X298510D01*
X298581Y285195D01*
X299232Y284760D01*
X300000Y284607D01*
X306299D01*
X307067Y284760D01*
X307718Y285195D01*
X308154Y285846D01*
X308306Y286614D01*
X308154Y287382D01*
X307718Y288033D01*
X307067Y288469D01*
X306299Y288621D01*
X300000D01*
X299232Y288469D01*
X298581Y288033D01*
X298510Y287927D01*
X297000D01*
X295407Y289520D01*
Y290027D01*
X295907Y290356D01*
X296181Y290301D01*
X298510D01*
X298581Y290195D01*
X299232Y289760D01*
X300000Y289607D01*
X306299D01*
X307067Y289760D01*
X307718Y290195D01*
X308154Y290846D01*
X308306Y291614D01*
X308154Y292382D01*
X307718Y293033D01*
X307067Y293468D01*
X306299Y293621D01*
X300000D01*
X299232Y293468D01*
X298581Y293033D01*
X298510Y292927D01*
X297407D01*
Y302933D01*
X298664Y304190D01*
X298949Y304616D01*
X299049Y305118D01*
Y306693D01*
X300590D01*
Y310827D01*
D02*
G37*
%LPD*%
G36*
X343684Y237261D02*
X344110Y236976D01*
X344612Y236876D01*
X344876D01*
X344987Y236548D01*
X345015Y236376D01*
X344428Y235611D01*
X344180Y235013D01*
X332657D01*
X332097Y235574D01*
X331671Y235858D01*
X331169Y235958D01*
X330283D01*
X330283Y235958D01*
X328286D01*
X328078Y236458D01*
X333508Y241888D01*
X339056D01*
X343684Y237261D01*
D02*
G37*
G36*
X342672Y248273D02*
X343098Y247988D01*
X343600Y247888D01*
X346695D01*
X346747Y247391D01*
X345826Y247009D01*
X345035Y246402D01*
X344428Y245611D01*
X344046Y244689D01*
X343916Y243701D01*
X344046Y242712D01*
X344428Y241791D01*
X345035Y241000D01*
X345826Y240392D01*
X346747Y240011D01*
X346695Y239513D01*
X345872D01*
X345813Y239502D01*
X345156D01*
X340528Y244129D01*
X340103Y244413D01*
X339600Y244513D01*
X332965D01*
X332462Y244413D01*
X332036Y244129D01*
X326425Y238517D01*
X322549D01*
X322281Y239017D01*
X322344Y239111D01*
X322474Y239764D01*
X322344Y240417D01*
X321974Y240970D01*
Y241116D01*
X322344Y241670D01*
X322474Y242323D01*
X322344Y242976D01*
X322281Y243069D01*
X322549Y243569D01*
X326667D01*
X327170Y243669D01*
X327596Y243954D01*
X335530Y251888D01*
X339056D01*
X342672Y248273D01*
D02*
G37*
G36*
X316240Y290994D02*
Y287402D01*
X317290D01*
Y286221D01*
X315945D01*
Y282087D01*
X319242D01*
X319434Y281625D01*
X318715Y280906D01*
X315945D01*
Y280151D01*
X312303D01*
X311801Y280051D01*
X311375Y279767D01*
X309535Y277927D01*
X307790D01*
X307718Y278033D01*
X307067Y278468D01*
X306299Y278621D01*
X300000D01*
X299232Y278468D01*
X298581Y278033D01*
X298269Y277567D01*
X297769Y277719D01*
Y280509D01*
X298269Y280661D01*
X298581Y280195D01*
X299232Y279760D01*
X300000Y279607D01*
X306299D01*
X307067Y279760D01*
X307718Y280195D01*
X307790Y280301D01*
X309101D01*
X309603Y280401D01*
X310029Y280686D01*
X313822Y284479D01*
X314106Y284905D01*
X314206Y285407D01*
Y287402D01*
X315256D01*
Y290663D01*
X315778Y291186D01*
X316240Y290994D01*
D02*
G37*
G36*
X332852Y211988D02*
X333354Y211888D01*
X339056D01*
X342672Y208273D01*
X343098Y207988D01*
X343600Y207888D01*
X346695D01*
X346747Y207391D01*
X345826Y207009D01*
X345035Y206402D01*
X344428Y205611D01*
X344180Y205013D01*
X332670D01*
X332088Y205595D01*
Y211947D01*
X332588Y212164D01*
X332852Y211988D01*
D02*
G37*
G36*
X295144Y281346D02*
Y261508D01*
X295244Y261006D01*
X295529Y260580D01*
X314714Y241395D01*
X315139Y241110D01*
X315293Y241080D01*
X315523Y240524D01*
X315451Y240417D01*
X315375Y240035D01*
X314833Y239870D01*
X292651Y262052D01*
Y278740D01*
X292551Y279242D01*
X292267Y279668D01*
X289393Y282542D01*
X288967Y282827D01*
X288958Y282829D01*
X288821Y283033D01*
X288170Y283469D01*
X287402Y283621D01*
X281102D01*
X280334Y283469D01*
X279683Y283033D01*
X279248Y282382D01*
X279095Y281614D01*
X279248Y280846D01*
X279683Y280195D01*
X280334Y279760D01*
X281102Y279607D01*
X287402D01*
X288170Y279760D01*
X288345Y279877D01*
X290026Y278197D01*
Y261508D01*
X290126Y261006D01*
X290410Y260580D01*
X314714Y236277D01*
X315139Y235992D01*
X315293Y235962D01*
X315523Y235406D01*
X315451Y235298D01*
X315322Y234646D01*
X315451Y233993D01*
X315821Y233439D01*
Y233293D01*
X315451Y232739D01*
X315322Y232087D01*
X315451Y231434D01*
X315821Y230880D01*
Y230734D01*
X315451Y230180D01*
X315322Y229528D01*
X315451Y228875D01*
X315821Y228321D01*
Y228175D01*
X315451Y227621D01*
X315322Y226969D01*
X315451Y226316D01*
X315821Y225762D01*
Y225616D01*
X315451Y225062D01*
X315322Y224410D01*
X315451Y223757D01*
X315821Y223203D01*
Y223057D01*
X315451Y222503D01*
X315322Y221850D01*
X315451Y221198D01*
X315821Y220644D01*
Y220498D01*
X315451Y219944D01*
X315322Y219291D01*
X315451Y218638D01*
X315821Y218085D01*
Y217939D01*
X315451Y217385D01*
X315322Y216732D01*
X315451Y216079D01*
X315821Y215526D01*
X316375Y215156D01*
X317028Y215026D01*
X320768D01*
X321421Y215156D01*
X321974Y215526D01*
X322344Y216079D01*
X322474Y216732D01*
X322344Y217385D01*
X321974Y217939D01*
Y218085D01*
X322344Y218638D01*
X322474Y219291D01*
X322344Y219944D01*
X321974Y220498D01*
Y220644D01*
X322344Y221198D01*
X322370Y221331D01*
X322890Y221382D01*
X323029Y221047D01*
X323471Y220472D01*
X324047Y220030D01*
X324717Y219752D01*
X325436Y219657D01*
X326156Y219752D01*
X326826Y220030D01*
X327402Y220472D01*
X327844Y221047D01*
X328121Y221718D01*
X328216Y222437D01*
X328169Y222798D01*
X328642Y223032D01*
X329463Y222211D01*
Y207677D01*
X326463D01*
X324254Y209886D01*
Y209955D01*
X324154Y210458D01*
X323869Y210883D01*
X322210Y212542D01*
X322119Y212603D01*
X321974Y212821D01*
X321421Y213190D01*
X320768Y213320D01*
X317028D01*
X316375Y213190D01*
X315821Y212821D01*
X315451Y212267D01*
X315322Y211614D01*
X315451Y210961D01*
X315754Y210509D01*
X315633Y210188D01*
X315428Y210004D01*
X315061Y210024D01*
X313444Y211640D01*
X313476Y211718D01*
X313571Y212437D01*
X313476Y213156D01*
X313199Y213827D01*
X312757Y214403D01*
X312181Y214844D01*
X312104Y214876D01*
Y216965D01*
X312004Y217467D01*
X311719Y217893D01*
X296884Y232729D01*
Y236143D01*
X296961Y236175D01*
X297536Y236617D01*
X297978Y237193D01*
X298256Y237863D01*
X298351Y238583D01*
X298256Y239302D01*
X297978Y239972D01*
X297536Y240548D01*
X296961Y240990D01*
X296835Y241042D01*
X296784Y241302D01*
X296499Y241728D01*
X294531Y243696D01*
X294457Y244069D01*
X294172Y244495D01*
X292857Y245810D01*
X292431Y246095D01*
X291929Y246195D01*
X291894D01*
X291499Y246458D01*
X290846Y246588D01*
X287106D01*
X286453Y246458D01*
X285900Y246088D01*
X285530Y245535D01*
X285400Y244882D01*
X285514Y244309D01*
X285276Y243809D01*
X283146D01*
X277687Y249268D01*
Y284492D01*
X278497Y285301D01*
X279612D01*
X279683Y285195D01*
X280334Y284760D01*
X281102Y284607D01*
X287402D01*
X288170Y284760D01*
X288821Y285195D01*
X289256Y285846D01*
X289369Y286414D01*
X289881Y286610D01*
X295144Y281346D01*
D02*
G37*
G36*
X332152Y306906D02*
Y294343D01*
X321525Y283716D01*
X321063Y283907D01*
Y286221D01*
X319915D01*
Y287402D01*
X320965D01*
Y292913D01*
X318159D01*
X317968Y293375D01*
X331690Y307098D01*
X332152Y306906D01*
D02*
G37*
%LPC*%
G36*
X284547Y257972D02*
X279035D01*
Y253248D01*
X283281D01*
X284899Y251631D01*
X285324Y251346D01*
X285827Y251246D01*
X286059D01*
X286453Y250983D01*
X287106Y250853D01*
X290846D01*
X291499Y250983D01*
X292053Y251353D01*
X292423Y251906D01*
X292552Y252559D01*
X292423Y253212D01*
X292053Y253765D01*
X291499Y254135D01*
X290846Y254265D01*
X287106D01*
X286453Y254135D01*
X286246Y253996D01*
X284547Y255695D01*
Y257972D01*
D02*
G37*
%LPD*%
D10*
X225492Y238583D02*
D03*
Y229528D02*
D03*
Y220472D02*
D03*
D11*
X248524Y229528D02*
D03*
D12*
X382480Y207579D02*
D03*
X388189D02*
D03*
X318602Y290158D02*
D03*
X312894D02*
D03*
D13*
X392618Y224016D02*
D03*
Y229724D02*
D03*
X311910Y171457D02*
D03*
Y165748D02*
D03*
X311122Y299606D02*
D03*
Y305315D02*
D03*
X281398Y208465D02*
D03*
Y202756D02*
D03*
X281791Y255610D02*
D03*
Y249902D02*
D03*
X281693Y228346D02*
D03*
Y222638D02*
D03*
X326969Y205315D02*
D03*
Y211024D02*
D03*
X288189Y171555D02*
D03*
Y177264D02*
D03*
D14*
X259055Y168799D02*
D03*
Y178445D02*
D03*
D15*
X211024Y224508D02*
D03*
Y235335D02*
D03*
X261811Y229823D02*
D03*
Y218996D02*
D03*
X307874Y132579D02*
D03*
Y121752D02*
D03*
X252756Y132579D02*
D03*
Y121752D02*
D03*
D16*
X360138Y197283D02*
D03*
Y192283D02*
D03*
Y187284D02*
D03*
Y182283D02*
D03*
Y177284D02*
D03*
Y172283D02*
D03*
Y167283D02*
D03*
X381594Y197283D02*
D03*
Y192283D02*
D03*
Y187284D02*
D03*
Y182283D02*
D03*
Y177284D02*
D03*
Y172283D02*
D03*
Y167283D02*
D03*
X364075Y229153D02*
D03*
Y224153D02*
D03*
Y219153D02*
D03*
Y214154D02*
D03*
X385531Y229153D02*
D03*
Y224153D02*
D03*
Y219153D02*
D03*
Y214154D02*
D03*
D17*
X276181Y179823D02*
D03*
X272441D02*
D03*
X268701D02*
D03*
Y168996D02*
D03*
X276181D02*
D03*
D18*
X284252Y301614D02*
D03*
Y296614D02*
D03*
Y291614D02*
D03*
Y286614D02*
D03*
Y281614D02*
D03*
Y276614D02*
D03*
Y271614D02*
D03*
X303150Y301614D02*
D03*
Y296614D02*
D03*
Y291614D02*
D03*
Y286614D02*
D03*
Y281614D02*
D03*
Y276614D02*
D03*
Y271614D02*
D03*
D19*
X318898Y206496D02*
D03*
Y209055D02*
D03*
Y211614D02*
D03*
Y214173D02*
D03*
Y216732D02*
D03*
Y219291D02*
D03*
Y221850D02*
D03*
Y224410D02*
D03*
Y226969D02*
D03*
Y229528D02*
D03*
Y232087D02*
D03*
Y234646D02*
D03*
Y237205D02*
D03*
Y239764D02*
D03*
Y242323D02*
D03*
Y244882D02*
D03*
Y247441D02*
D03*
Y250000D02*
D03*
Y252559D02*
D03*
X288976Y206496D02*
D03*
Y209055D02*
D03*
Y211614D02*
D03*
Y214173D02*
D03*
Y216732D02*
D03*
Y219291D02*
D03*
Y221850D02*
D03*
Y224410D02*
D03*
Y226969D02*
D03*
Y229528D02*
D03*
Y232087D02*
D03*
Y234646D02*
D03*
Y237205D02*
D03*
Y239764D02*
D03*
Y242323D02*
D03*
Y244882D02*
D03*
Y247441D02*
D03*
Y250000D02*
D03*
Y252559D02*
D03*
D20*
X290158Y138976D02*
D03*
X270472D02*
D03*
D21*
X233169Y172539D02*
D03*
X226870D02*
D03*
X235335Y279823D02*
D03*
X241634D02*
D03*
X241240Y257382D02*
D03*
X234941D02*
D03*
D22*
X250098Y279823D02*
D03*
X257579Y283563D02*
D03*
Y276083D02*
D03*
X250098Y256988D02*
D03*
X257579Y260728D02*
D03*
Y253248D02*
D03*
D23*
X399508Y192126D02*
D03*
X394193D02*
D03*
X302756Y171752D02*
D03*
X297441D02*
D03*
X360728Y159055D02*
D03*
X366043D02*
D03*
X374803D02*
D03*
X380118D02*
D03*
X394488Y171949D02*
D03*
X389173D02*
D03*
D24*
X388976Y191831D02*
D03*
Y197146D02*
D03*
X389272Y182874D02*
D03*
Y177559D02*
D03*
X324311Y166437D02*
D03*
Y171752D02*
D03*
X318504Y284154D02*
D03*
Y278839D02*
D03*
X298031Y308760D02*
D03*
Y314075D02*
D03*
X291339Y308760D02*
D03*
Y314075D02*
D03*
D25*
X233126Y180807D02*
D03*
X226126D02*
D03*
X281453Y215748D02*
D03*
X274453D02*
D03*
X227024Y279823D02*
D03*
X220024D02*
D03*
X227067Y257382D02*
D03*
X220067D02*
D03*
D26*
X311811Y198874D02*
D03*
Y191874D02*
D03*
D27*
X333465Y293799D02*
Y336339D01*
X338012Y340886D01*
X326516Y340965D02*
X326909Y340571D01*
X331465Y308728D02*
Y336646D01*
X327224Y340886D02*
X331465Y336646D01*
X304941Y338090D02*
Y340965D01*
X315728Y338090D02*
Y340965D01*
X304941Y338090D02*
X305394Y337638D01*
X315728Y338090D02*
X316181Y337638D01*
X298031Y317717D02*
X316181Y335866D01*
Y337638D01*
X304902Y340965D02*
X304941D01*
X273934Y218638D02*
X274453D01*
X310791Y212437D02*
Y216965D01*
X295571Y232185D02*
X310791Y216965D01*
X295571Y232185D02*
Y238583D01*
X314248Y205902D02*
Y208980D01*
Y205902D02*
X316039Y204110D01*
X322941Y209343D02*
X326969Y205315D01*
X322941Y209343D02*
Y209955D01*
X321282Y211614D02*
X322941Y209955D01*
X318898Y211614D02*
X321282D01*
X322961Y205315D02*
X326969D01*
X322638Y214173D02*
X325787Y211024D01*
X318898Y214173D02*
X322638D01*
X326969Y211024D02*
Y215819D01*
X316213Y214173D02*
X318898D01*
X299571Y230815D02*
X316213Y214173D01*
X297736Y305118D02*
Y308760D01*
X318898Y231913D02*
X327274D01*
X297024Y214000D02*
X312323Y198701D01*
X322441Y224410D02*
X325196Y221654D01*
X371752Y212697D02*
X378209Y219153D01*
X371752Y197933D02*
Y212697D01*
X349953Y209201D02*
X352429Y206724D01*
X343600Y209201D02*
X349953D01*
X352429Y198394D02*
Y206724D01*
X347736Y193701D02*
X352429Y198394D01*
X357618Y219153D02*
X364075D01*
X385531Y224153D02*
X385669Y224016D01*
X371752Y197933D02*
X374410Y195276D01*
X257579Y276083D02*
X262205Y271457D01*
Y255512D02*
Y271457D01*
Y255512D02*
X280339Y237378D01*
X257579Y253248D02*
X261516D01*
X280118Y234646D01*
X288976D01*
X310791Y212437D02*
X314248Y208980D01*
X299571Y230815D02*
Y240240D01*
X316039Y204110D02*
X321756D01*
X325436Y221895D02*
Y222437D01*
X326562Y226969D02*
X330776Y222755D01*
X318898Y226969D02*
X326562D01*
X327005Y229354D02*
X332776Y223583D01*
X319071Y229354D02*
X327005D01*
X327274Y231913D02*
X334986Y224201D01*
X332114Y233701D02*
X347736D01*
X312303Y278839D02*
X318504D01*
X310079Y276614D02*
X312303Y278839D01*
X303150Y276614D02*
X310079D01*
X309101Y281614D02*
X312894Y285407D01*
X303150Y281614D02*
X309101D01*
X312894Y285407D02*
Y290158D01*
X297244Y242566D02*
Y244783D01*
X294587Y247441D02*
X297244Y244783D01*
X261811Y229823D02*
X269193D01*
X291339Y308760D02*
X294094Y306004D01*
X281398Y208465D02*
X281594D01*
X297244Y242566D02*
X299571Y240240D01*
X321756Y204110D02*
X322961Y205315D01*
X332126Y203701D02*
X347736D01*
X330776Y205051D02*
X332126Y203701D01*
X330776Y205051D02*
Y222755D01*
X332776Y213779D02*
Y223583D01*
Y213779D02*
X333354Y213201D01*
X364075Y229153D02*
Y234449D01*
X349323Y249201D02*
X364075Y234449D01*
X354331Y230315D02*
Y234646D01*
X350776Y238201D02*
X354331Y234646D01*
X345872Y238201D02*
X350776D01*
X331169Y234646D02*
X332114Y233701D01*
X330283Y234646D02*
X331169D01*
X343600Y249201D02*
X349323D01*
X325196Y221654D02*
X325436Y221895D01*
X333354Y213201D02*
X339600D01*
X334986Y224201D02*
X347236D01*
X339600Y243201D02*
X344612Y238189D01*
X332965Y243201D02*
X339600D01*
X326969Y237205D02*
X332965Y243201D01*
X295571Y238583D02*
Y240800D01*
X293244Y243127D02*
X295571Y240800D01*
X293244Y243127D02*
Y243567D01*
X291929Y244882D02*
X293244Y243567D01*
X288976Y244882D02*
X291929D01*
X288976Y247441D02*
X294587D01*
X291339Y261508D02*
X315642Y237205D01*
X296457Y261508D02*
X315642Y242323D01*
X282776Y255610D02*
X285827Y252559D01*
X281791Y255610D02*
X282776D01*
X291339Y261508D02*
Y278740D01*
X288465Y281614D02*
X291339Y278740D01*
X281791Y249902D02*
X281890Y250000D01*
X388976Y191831D02*
X393898D01*
X394193Y192126D01*
X378209Y219153D02*
X385531D01*
X305394Y328130D02*
Y337638D01*
X291339Y314075D02*
X305394Y328130D01*
X284252Y296614D02*
X288819D01*
X296457Y261508D02*
Y281890D01*
X290158Y288189D02*
X296457Y281890D01*
X290158Y288189D02*
Y295276D01*
X288819Y296614D02*
X290158Y295276D01*
X294094Y288976D02*
Y306004D01*
Y288976D02*
X296457Y286614D01*
X296094Y291701D02*
X296181Y291614D01*
X297736Y308760D02*
X298031D01*
X296094Y291701D02*
Y303476D01*
X297736Y305118D01*
X298031Y314075D02*
Y317717D01*
X284252Y281614D02*
X288465D01*
X288976Y214173D02*
X289150Y214000D01*
X318602Y284252D02*
Y290158D01*
X318504Y284154D02*
X318602Y284252D01*
X318504Y278839D02*
X333465Y293799D01*
X318898Y229528D02*
X319071Y229354D01*
X347236Y224201D02*
X347736Y223701D01*
X345860Y238189D02*
X345872Y238201D01*
X344612Y238189D02*
X345860D01*
X339600Y213201D02*
X343600Y209201D01*
X360492Y224153D02*
X364075D01*
X318898Y244882D02*
X326667D01*
X354331Y230315D02*
X360492Y224153D01*
X326667Y244882D02*
X334986Y253201D01*
X339600D01*
X343600Y249201D01*
X330283Y234646D02*
X330283Y234646D01*
X318898Y234646D02*
X330283D01*
X318898Y224410D02*
X322441D01*
X277124Y288614D02*
X277197D01*
X280197Y291614D01*
X366043Y159055D02*
X374803D01*
X393799Y186221D02*
X394980D01*
X390158Y182579D02*
X393799Y186221D01*
X311910Y165748D02*
X312598Y166437D01*
X281453Y208520D02*
Y215748D01*
X281398Y208465D02*
X281453Y208520D01*
Y215748D02*
X285587Y211614D01*
X288803Y237378D02*
X288976Y237205D01*
X285587Y211614D02*
X288976D01*
X285827Y252559D02*
X288976D01*
X288803Y242496D02*
X288976Y242323D01*
X318898Y237205D02*
X326969D01*
X315642D02*
X318898D01*
X281890Y250000D02*
X288976D01*
X285728Y224410D02*
X288976D01*
X318898Y231913D02*
Y232087D01*
X288803Y239937D02*
X288976Y239764D01*
X315642Y242323D02*
X318898D01*
X282602Y242496D02*
X288803D01*
X281913Y239937D02*
X288803D01*
X280339Y237378D02*
X288803D01*
X289150Y214000D02*
X297024D01*
X312323Y198701D02*
X337736D01*
X296457Y286614D02*
X303150D01*
X296181Y291614D02*
X303150D01*
X284252Y271614D02*
Y276614D01*
X280197Y291614D02*
X284252D01*
X281693Y228346D02*
X283957D01*
X285335Y226969D01*
X288976D01*
X283957Y222638D02*
X285728Y224410D01*
X281693Y222638D02*
X283957D01*
X274453Y215748D02*
Y218638D01*
X271590Y220981D02*
X273934Y218638D01*
X269193Y229823D02*
X271590Y227425D01*
Y220981D02*
Y227425D01*
X275590Y222638D02*
X281693D01*
X274902Y202756D02*
X281398D01*
X305961Y191874D02*
X311811D01*
X304933Y190846D02*
X305961Y191874D01*
X303150Y296614D02*
Y296654D01*
X312894Y290158D02*
X331465Y308728D01*
X380118Y159055D02*
X380772Y158402D01*
X438976Y207874D02*
Y208957D01*
X394488Y169095D02*
Y171949D01*
X389173D02*
Y177461D01*
X389272Y177559D01*
X399508Y188878D02*
Y192126D01*
X402362Y186024D02*
X402559D01*
X399508Y188878D02*
X402362Y186024D01*
X274374Y247476D02*
X281913Y239937D01*
X274374Y247476D02*
Y285864D01*
X277124Y288614D01*
X276374Y248724D02*
X282602Y242496D01*
X276374Y248724D02*
Y285035D01*
X277953Y286614D01*
X284252D01*
X288976Y247441D02*
Y250000D01*
X389504Y158402D02*
Y158453D01*
X433169Y272146D02*
Y272933D01*
X392421Y167027D02*
X394488Y169095D01*
X392224Y167027D02*
X392421D01*
X381594Y163878D02*
Y167283D01*
X380118Y162402D02*
X381594Y163878D01*
X380118Y159055D02*
Y162402D01*
X374803Y159055D02*
Y175197D01*
X376890Y177284D01*
X381594D01*
X381929Y171949D02*
X389173D01*
X381594Y172283D02*
X381929Y171949D01*
X381594Y192283D02*
X388524D01*
X388976Y191831D01*
X380748Y197283D02*
X381594D01*
X388839D01*
X388976Y197146D01*
X364075Y201006D02*
Y214154D01*
Y201006D02*
X377797Y187284D01*
X381594D01*
X360138Y167283D02*
Y172283D01*
Y159646D02*
Y167283D01*
Y159646D02*
X360728Y159055D01*
X325783Y217005D02*
X326969Y215819D01*
D28*
X386811Y235531D02*
X392618Y229724D01*
X261811Y211614D02*
Y218996D01*
X222539Y241535D02*
Y245374D01*
Y241535D02*
X225492Y238583D01*
X304232Y306594D02*
X309842D01*
X311122Y305315D01*
X308130Y296614D02*
X311122Y299606D01*
X303150Y296614D02*
X308130D01*
X311122Y299606D02*
X311221Y299705D01*
X316437D01*
X303150Y301614D02*
X309114D01*
X311122Y299606D01*
X297441Y171752D02*
Y171994D01*
X303892Y178445D01*
X304823D01*
X288189Y171555D02*
X288386Y171752D01*
X297441D01*
X302756D02*
X303051Y171457D01*
X311910D01*
X339075Y178347D02*
X347244D01*
X324311Y171752D02*
X332480D01*
X339075Y178347D01*
X324016Y171457D02*
X324311Y171752D01*
X311910Y171457D02*
X324016D01*
X282972Y171555D02*
X288189D01*
X280413Y168996D02*
X282972Y171555D01*
X276181Y168996D02*
X280413D01*
X233126Y172976D02*
X233132Y172539D01*
X227067Y257382D02*
X234941D01*
X241240D02*
X241634Y256988D01*
X250098D01*
X241634Y279823D02*
X250098D01*
X227024D02*
X235335D01*
X248524Y229528D02*
X248819Y229823D01*
X261811D01*
X377559Y135039D02*
Y141339D01*
X368504Y150394D02*
X377559Y141339D01*
X392480Y224153D02*
X392618Y224016D01*
X385531Y224153D02*
X392480D01*
X392520Y203248D02*
X393799D01*
X388189Y207579D02*
X392520Y203248D01*
X392618Y214924D02*
Y224016D01*
X382480Y211102D02*
X385531Y214154D01*
X382480Y207579D02*
Y211102D01*
X355217Y200886D02*
X359547Y205217D01*
X355217Y192618D02*
Y200886D01*
X346949Y184350D02*
X355217Y192618D01*
X379232Y207579D02*
X382480D01*
X376870Y205217D02*
X379232Y207579D01*
X301673Y184350D02*
X346949D01*
X295433Y190591D02*
X301673Y184350D01*
X236949Y190591D02*
X295433D01*
X236516Y190157D02*
X236949Y190591D01*
X288189Y179527D02*
X291043Y182382D01*
X288189Y177264D02*
Y179527D01*
X270374Y186319D02*
X272441Y184252D01*
Y179823D02*
Y184252D01*
X253248Y183169D02*
X257972Y178445D01*
X259055D01*
X378051Y227658D02*
X379547Y229153D01*
X385531D01*
X384744Y235531D02*
X386811D01*
X257579Y288681D02*
X257579Y288681D01*
Y283563D02*
Y288681D01*
X200689Y235335D02*
X211024D01*
X262598Y230610D02*
X273425D01*
X261811Y229823D02*
X262598Y230610D01*
X252509Y121752D02*
X252756D01*
X380772Y158402D02*
X389504D01*
Y158453D02*
X406559Y175508D01*
Y187268D01*
X432677Y213386D01*
X381496Y182382D02*
X381594Y182283D01*
X347244Y178347D02*
X359075D01*
X360138Y177284D01*
X388976Y197146D02*
X393602D01*
X402264Y205807D01*
Y241240D01*
X360138Y182283D02*
X367716D01*
X367815Y182382D01*
X373917Y182382D02*
X381496D01*
X402264Y241240D02*
X433169Y272146D01*
D29*
X191972Y214807D02*
Y245374D01*
Y199760D02*
Y214807D01*
X201673Y224508D02*
X211024D01*
X191972Y214807D02*
X201673Y224508D01*
X212319D02*
X216354Y220472D01*
X211024Y224508D02*
X212319D01*
X216354Y220472D02*
X225492D01*
X233126Y172976D02*
Y180807D01*
X201575Y190157D02*
X227504D01*
Y189807D02*
Y190004D01*
X226126Y188626D02*
X227406Y189906D01*
X226126Y180807D02*
Y188626D01*
X236516Y190157D02*
X250000Y176673D01*
X227658Y190157D02*
X236516D01*
X250000Y168799D02*
Y176673D01*
X210335Y280807D02*
X262244Y332716D01*
X191972Y262445D02*
X210335Y280807D01*
X211319Y279823D01*
X220024D01*
X262244Y332716D02*
Y337638D01*
X191972Y245374D02*
Y262445D01*
X220024Y279823D02*
X220067Y279780D01*
X191972Y245374D02*
X203783Y257185D01*
X219870D01*
X220067Y257382D01*
X268504Y168799D02*
X268701Y168996D01*
X259055Y168799D02*
X265354D01*
X268504D01*
X252756Y132579D02*
X264075D01*
X270472Y138976D01*
X250000Y135335D02*
Y168799D01*
X259055D01*
X296555Y132579D02*
X307874D01*
X290158Y138976D02*
X296555Y132579D01*
X307874D02*
X325098D01*
X327559Y135039D01*
X227406Y189906D02*
X227504Y189807D01*
X191972Y199760D02*
X201575Y190157D01*
X227504Y190004D02*
Y190157D01*
Y190004D02*
X227658Y190157D01*
X250000Y135335D02*
X252756Y132579D01*
D30*
X265354Y168799D02*
Y176476D01*
X268701Y179823D01*
D31*
X225492Y229528D02*
X248524D01*
D32*
X257579Y260728D02*
X258563Y261713D01*
Y267028D01*
D33*
X433366Y154232D02*
D03*
X432677Y213386D02*
D03*
X433169Y272933D02*
D03*
D34*
X201575Y190157D02*
D03*
D35*
Y170473D02*
D03*
D36*
X337736Y258701D02*
D03*
X347736Y253701D02*
D03*
X337736Y248701D02*
D03*
X347736Y243701D02*
D03*
X337736Y238701D02*
D03*
X347736Y233701D02*
D03*
X337736Y218701D02*
D03*
X347736Y223701D02*
D03*
X337736Y228701D02*
D03*
X347736Y213701D02*
D03*
X337736Y208701D02*
D03*
Y198701D02*
D03*
X347736Y203701D02*
D03*
X327559Y135039D02*
D03*
X337559D02*
D03*
X357559D02*
D03*
X367559D02*
D03*
X377559D02*
D03*
D37*
X347736Y193701D02*
D03*
D38*
X338012Y340886D02*
D03*
X327224D02*
D03*
X316437D02*
D03*
X305650D02*
D03*
X294902D02*
D03*
X284075D02*
D03*
X273287D02*
D03*
X262500D02*
D03*
X332618Y350886D02*
D03*
X321831D02*
D03*
X311043D02*
D03*
X300256D02*
D03*
X289469D02*
D03*
X278681D02*
D03*
X267894D02*
D03*
D39*
X365846Y345295D02*
D03*
X234665D02*
D03*
D40*
X347244Y158346D02*
D03*
X337244Y168347D02*
D03*
X347244Y178347D02*
D03*
X261811Y211614D02*
D03*
X222539Y245374D02*
D03*
X318996Y164665D02*
D03*
X307185Y161909D02*
D03*
X280413Y132382D02*
D03*
Y146555D02*
D03*
X235138Y222539D02*
D03*
X216634Y243012D02*
D03*
X250886Y246161D02*
D03*
X219783Y264665D02*
D03*
X247736Y261909D02*
D03*
X243406Y195768D02*
D03*
X280413Y267027D02*
D03*
X231201Y196949D02*
D03*
X222933D02*
D03*
X257579Y148917D02*
D03*
Y154823D02*
D03*
Y160728D02*
D03*
X243799Y150886D02*
D03*
Y156791D02*
D03*
X320571Y179232D02*
D03*
X243799Y168602D02*
D03*
X280413Y139469D02*
D03*
X393799Y203248D02*
D03*
X392618Y214924D02*
D03*
X304823Y178445D02*
D03*
X376870Y205217D02*
D03*
X359547D02*
D03*
X291043Y182382D02*
D03*
X270374Y186319D02*
D03*
X253248Y183169D02*
D03*
X384744Y235531D02*
D03*
X378051Y227658D02*
D03*
X357618Y219153D02*
D03*
X374410Y195276D02*
D03*
X200689Y235335D02*
D03*
X257579Y288681D02*
D03*
X310791Y212437D02*
D03*
X325436Y222437D02*
D03*
X297244Y244783D02*
D03*
X273425Y230610D02*
D03*
X295571Y238583D02*
D03*
X394980Y186221D02*
D03*
X368504Y150394D02*
D03*
X275590Y222638D02*
D03*
X274902Y202756D02*
D03*
X304933Y190846D02*
D03*
X304232Y306594D02*
D03*
X316437Y299705D02*
D03*
X258563Y267028D02*
D03*
X402559Y186024D02*
D03*
X392224Y167027D02*
D03*
X325783Y217005D02*
D03*
X206997Y136790D02*
D03*
X197154Y156475D02*
D03*
X206997Y215530D02*
D03*
Y294270D02*
D03*
X197154Y313955D02*
D03*
X206997Y333640D02*
D03*
X197154Y353325D02*
D03*
X206997Y373010D02*
D03*
X216839Y117105D02*
D03*
X226682Y136790D02*
D03*
X216839Y156475D02*
D03*
Y313955D02*
D03*
X226682Y333640D02*
D03*
X216839Y353325D02*
D03*
X226682Y373010D02*
D03*
X236524Y117105D02*
D03*
Y156475D02*
D03*
X246367Y215530D02*
D03*
X236524Y235215D02*
D03*
Y274585D02*
D03*
X246367Y294270D02*
D03*
Y333640D02*
D03*
Y373010D02*
D03*
X256209Y195845D02*
D03*
X266052Y294270D02*
D03*
X256209Y313955D02*
D03*
Y353325D02*
D03*
X266052Y373010D02*
D03*
X275894Y117105D02*
D03*
Y195845D02*
D03*
Y313955D02*
D03*
X285737Y333640D02*
D03*
Y373010D02*
D03*
X295580Y117105D02*
D03*
Y195845D02*
D03*
X305422Y215530D02*
D03*
Y373010D02*
D03*
X315265Y117105D02*
D03*
Y156475D02*
D03*
X325107Y176160D02*
D03*
Y254900D02*
D03*
X315265Y274585D02*
D03*
X325107Y294270D02*
D03*
X315265Y313955D02*
D03*
X325107Y333640D02*
D03*
Y373010D02*
D03*
X334950Y117105D02*
D03*
X344792Y136790D02*
D03*
X334950Y156475D02*
D03*
X344792Y294270D02*
D03*
Y333640D02*
D03*
Y373010D02*
D03*
X354635Y117105D02*
D03*
Y156475D02*
D03*
X364477Y254900D02*
D03*
X354635Y274585D02*
D03*
X364477Y294270D02*
D03*
X354635Y313955D02*
D03*
X364477Y333640D02*
D03*
X354635Y353325D02*
D03*
X364477Y373010D02*
D03*
X374320Y117105D02*
D03*
X384162Y136790D02*
D03*
X374320Y235215D02*
D03*
X384162Y254900D02*
D03*
X374320Y274585D02*
D03*
X384162Y294270D02*
D03*
X374320Y313955D02*
D03*
X384162Y333640D02*
D03*
X374320Y353325D02*
D03*
X384162Y373010D02*
D03*
X394005Y117105D02*
D03*
X403847Y136790D02*
D03*
X394005Y156475D02*
D03*
Y235215D02*
D03*
X403847Y254900D02*
D03*
X394005Y274585D02*
D03*
X403847Y294270D02*
D03*
X394005Y313955D02*
D03*
X403847Y333640D02*
D03*
X394005Y353325D02*
D03*
X403847Y373010D02*
D03*
X413690Y117105D02*
D03*
Y313955D02*
D03*
X423532Y333640D02*
D03*
X413690Y353325D02*
D03*
X423532Y373010D02*
D03*
X433375Y117105D02*
D03*
Y313955D02*
D03*
X443217Y333640D02*
D03*
X433375Y353325D02*
D03*
X462902Y176160D02*
D03*
Y215530D02*
D03*
Y254900D02*
D03*
Y294270D02*
D03*
X453060Y313955D02*
D03*
X462902Y333640D02*
D03*
X453060Y353325D02*
D03*
D41*
X459252Y113386D02*
D03*
Y377854D02*
D03*
X184646Y377854D02*
D03*
Y113484D02*
D03*
D42*
X367815Y182382D02*
D03*
X373917Y182382D02*
D03*
M02*
