M48
;Layer_Color=9474304
;FILE_FORMAT=2:5
INCH,LZ
;TYPE=PLATED
T1F00S00C0.01968
T2F00S00C0.01968
T3F00S00C0.02800
T4F00S00C0.03000
T5F00S00C0.04685
T6F00S00C0.04724
T7F00S00C0.12598
T8F00S00C0.23622
%
T01
X0347244Y0158346
X0337244Y0168347
X0347244Y0178347
T02
X0216839Y0117105
X0236524
X0226682Y013679
X0206997
X0243799Y0150886
X0257579Y0148917
Y0154823
X0280413Y0146555
Y0139469
Y0132382
X0275894Y0117105
X029558
X0315265
X033495
X0354635
X037432
X0394005
X041369
X0433375
X0403847Y013679
X0384162
X0368504Y0150394
X0344792Y013679
X033495Y0156475
X0315265
X0318996Y0164665
X0320571Y0179232
X0325107Y017616
X0325783Y0217005
X0325436Y0222437
X0325107Y02549
X0315265Y0274585
X0316437Y0299705
X0325107Y029427
X0344792
X0364477
X0384162
X0403847
X0394005Y0274585
X037432
X0354635
X0364477Y02549
X0384162
X0403847
X0394005Y0235215
X0384744Y0235531
X037432Y0235215
X0378051Y0227658
X037687Y0205217
X037441Y0195276
X0359547Y0205217
X0357618Y0219153
X0392618Y0214924
X0393799Y0203248
X039498Y0186221
X0402559Y0186024
X0392224Y0167027
X0394005Y0156475
X0354635
X0462902Y017616
Y021553
Y02549
Y029427
X0304232Y0306594
X0266052Y029427
X0257579Y0288681
X0246367Y029427
X0236524Y0274585
X0247736Y0261909
X0258563Y0267028
X0280413Y0267027
X0297244Y0244783
X0295571Y0238583
X0273425Y023061
X027559Y0222638
X0274902Y0202756
X0275894Y0195845
X0270374Y0186319
X0253248Y0183169
X0256209Y0195845
X0243406Y0195768
X0231201Y0196949
X0222933
X0206997Y021553
X0200689Y0235335
X0216634Y0243012
X0222539Y0245374
X0219783Y0264665
X0206997Y029427
X0236524Y0235215
X0235138Y0222539
X0246367Y021553
X0261811Y0211614
X0250886Y0246161
X0243799Y0168602
Y0156791
X0236524Y0156475
X0216839
X0197154
X0257579Y0160728
X0307185Y0161909
X0304823Y0178445
X0304933Y0190846
X029558Y0195845
X0291043Y0182382
X0305422Y021553
X0310791Y0212437
X0275894Y0313955
X0256209
X0246367Y033364
X0226682
X0206997
X0197154Y0313955
X0216839
Y0353325
X0197154
X0206997Y037301
X0226682
X0246367
X0266052
X0285737
X0305422
X0285737Y033364
X0256209Y0353325
X0325107Y033364
X0344792
X0364477
X0384162
X0403847
X0423532
X0443217
X0462902
X045306Y0313955
X0433375
X041369
X0394005
X037432
X0354635
X0315265
X0325107Y037301
X0344792
X0364477
X0384162
X0403847
X0423532
X041369Y0353325
X0394005
X037432
X0354635
X0433375
X045306
T03
X0367815Y0182382
X0373917Y0182382
T04
X0327559Y0135039
X0337559
X0357559
X0367559
X0377559
X0347736Y0193701
Y0203701
Y0213701
Y0223701
Y0233701
Y0243701
Y0253701
X0337736Y0258701
Y0248701
Y0238701
Y0228701
Y0218701
Y0208701
Y0198701
T05
X02625Y0340886
X0273287
X0284075
X0294902
X030565
X0311043Y0350886
X0300256
X0289469
X0278681
X0267894
X0321831
X0332618
X0338012Y0340886
X0327224
X0316437
T06
X0201575Y0170473
Y0190157
T07
X0184646Y0113484
X0459252Y0113386
X0234665Y0345295
X0184646Y0377854
X0365846Y0345295
X0459252Y0377854
T08
X0433366Y0154232
X0432677Y0213386
X0433169Y0272933
M30
